%TF.GenerationSoftware,KiCad,Pcbnew,7.0.7*%
%TF.CreationDate,2025-11-05T22:59:09-06:00*%
%TF.ProjectId,Project2PCB,50726f6a-6563-4743-9250-43422e6b6963,rev?*%
%TF.SameCoordinates,Original*%
%TF.FileFunction,Copper,L2,Bot*%
%TF.FilePolarity,Positive*%
%FSLAX46Y46*%
G04 Gerber Fmt 4.6, Leading zero omitted, Abs format (unit mm)*
G04 Created by KiCad (PCBNEW 7.0.7) date 2025-11-05 22:59:09*
%MOMM*%
%LPD*%
G01*
G04 APERTURE LIST*
%TA.AperFunction,ComponentPad*%
%ADD10R,1.700000X1.700000*%
%TD*%
%TA.AperFunction,ComponentPad*%
%ADD11O,1.700000X1.700000*%
%TD*%
%TA.AperFunction,ComponentPad*%
%ADD12R,1.600000X1.600000*%
%TD*%
%TA.AperFunction,ComponentPad*%
%ADD13C,1.600000*%
%TD*%
%TA.AperFunction,ComponentPad*%
%ADD14R,1.300000X1.300000*%
%TD*%
%TA.AperFunction,ComponentPad*%
%ADD15C,1.300000*%
%TD*%
G04 APERTURE END LIST*
D10*
%TO.P,U4,1,Vin*%
%TO.N,Net-(U4-Vin)*%
X139700000Y-71120000D03*
D11*
%TO.P,U4,2,3V*%
%TO.N,unconnected-(U4-3V-Pad2)*%
X139700000Y-73660000D03*
%TO.P,U4,3,GND*%
%TO.N,Net-(U1-GND)*%
X139700000Y-76200000D03*
%TO.P,U4,4,SCL*%
%TO.N,Net-(U3-16_A2_RX4_SCL1)*%
X139700000Y-78740000D03*
%TO.P,U4,5,SDA*%
%TO.N,Net-(U3-17_A3_TX4_SDA1)*%
X139700000Y-81280000D03*
%TO.P,U4,6,RST*%
%TO.N,unconnected-(U4-RST-Pad6)*%
X139700000Y-83820000D03*
%TD*%
D12*
%TO.P,U3,1,GND*%
%TO.N,Net-(J2-Pin_1)*%
X124460000Y-106680000D03*
D13*
%TO.P,U3,2,0_RX1_CRX2_CS1*%
%TO.N,Net-(U2-TX)*%
X127000000Y-106680000D03*
%TO.P,U3,3,1_TX1_CTX2_MISO1*%
%TO.N,Net-(U2-RX)*%
X129540000Y-106680000D03*
%TO.P,U3,4,2_OUT2*%
%TO.N,Net-(J1-Pin_1)*%
X132080000Y-106680000D03*
%TO.P,U3,5,3_LRCLK2*%
%TO.N,unconnected-(U3-3_LRCLK2-Pad5)*%
X134620000Y-106680000D03*
%TO.P,U3,6,4_BCLK2*%
%TO.N,unconnected-(U3-4_BCLK2-Pad6)*%
X137160000Y-106680000D03*
%TO.P,U3,7,5_IN2*%
%TO.N,unconnected-(U3-5_IN2-Pad7)*%
X139700000Y-106680000D03*
%TO.P,U3,8,6_OUT1D*%
%TO.N,unconnected-(U3-6_OUT1D-Pad8)*%
X142240000Y-106680000D03*
%TO.P,U3,9,7_RX2_OUT1A*%
%TO.N,unconnected-(U3-7_RX2_OUT1A-Pad9)*%
X144780000Y-106680000D03*
%TO.P,U3,10,8_TX2_IN1*%
%TO.N,unconnected-(U3-8_TX2_IN1-Pad10)*%
X147320000Y-106680000D03*
%TO.P,U3,11,9_OUT1C*%
%TO.N,unconnected-(U3-9_OUT1C-Pad11)*%
X149860000Y-106680000D03*
%TO.P,U3,12,10_CS_MQSR*%
%TO.N,unconnected-(U3-10_CS_MQSR-Pad12)*%
X152400000Y-106680000D03*
%TO.P,U3,13,11_MOSI_CTX1*%
%TO.N,unconnected-(U3-11_MOSI_CTX1-Pad13)*%
X154940000Y-106680000D03*
%TO.P,U3,14,12_MISO_MQSL*%
%TO.N,unconnected-(U3-12_MISO_MQSL-Pad14)*%
X157480000Y-106680000D03*
%TO.P,U3,15,3V3*%
%TO.N,Net-(U1-VCC)*%
X160020000Y-106680000D03*
%TO.P,U3,16,24_A10_TX6_SCL2*%
%TO.N,unconnected-(U3-24_A10_TX6_SCL2-Pad16)*%
X162560000Y-106680000D03*
%TO.P,U3,17,25_A11_RX6_SDA2*%
%TO.N,unconnected-(U3-25_A11_RX6_SDA2-Pad17)*%
X165100000Y-106680000D03*
%TO.P,U3,18,26_A12_MOSI1*%
%TO.N,unconnected-(U3-26_A12_MOSI1-Pad18)*%
X167640000Y-106680000D03*
%TO.P,U3,19,27_A13_SCK1*%
%TO.N,unconnected-(U3-27_A13_SCK1-Pad19)*%
X170180000Y-106680000D03*
%TO.P,U3,20,28_RX7*%
%TO.N,Net-(U1-TXD)*%
X172720000Y-106680000D03*
%TO.P,U3,21,29_TX7*%
%TO.N,Net-(U1-RXD)*%
X175260000Y-106680000D03*
%TO.P,U3,22,30_CRX3*%
%TO.N,unconnected-(U3-30_CRX3-Pad22)*%
X177800000Y-106680000D03*
%TO.P,U3,23,31_CTX3*%
%TO.N,unconnected-(U3-31_CTX3-Pad23)*%
X180340000Y-106680000D03*
%TO.P,U3,24,32_OUT1B*%
%TO.N,unconnected-(U3-32_OUT1B-Pad24)*%
X182880000Y-106680000D03*
%TO.P,U3,25,33_MCLK2*%
%TO.N,unconnected-(U3-33_MCLK2-Pad25)*%
X182880000Y-91440000D03*
%TO.P,U3,26,34_RX8*%
%TO.N,Net-(J4-Pin_1)*%
X180340000Y-91440000D03*
%TO.P,U3,27,35_TX8*%
%TO.N,Net-(J3-Pin_1)*%
X177800000Y-91440000D03*
%TO.P,U3,28,36_CS*%
%TO.N,unconnected-(U3-36_CS-Pad28)*%
X175260000Y-91440000D03*
%TO.P,U3,29,37_CS*%
%TO.N,unconnected-(U3-37_CS-Pad29)*%
X172720000Y-91440000D03*
%TO.P,U3,30,38_CS1_IN1*%
%TO.N,unconnected-(U3-38_CS1_IN1-Pad30)*%
X170180000Y-91440000D03*
%TO.P,U3,31,39_MISO1_OUT1A*%
%TO.N,unconnected-(U3-39_MISO1_OUT1A-Pad31)*%
X167640000Y-91440000D03*
%TO.P,U3,32,40_A16*%
%TO.N,unconnected-(U3-40_A16-Pad32)*%
X165100000Y-91440000D03*
%TO.P,U3,33,41_A17*%
%TO.N,unconnected-(U3-41_A17-Pad33)*%
X162560000Y-91440000D03*
%TO.P,U3,34,GND*%
%TO.N,Net-(U1-GND)*%
X160020000Y-91440000D03*
%TO.P,U3,35,13_SCK_LED*%
%TO.N,unconnected-(U3-13_SCK_LED-Pad35)*%
X157480000Y-91440000D03*
%TO.P,U3,36,14_A0_TX3_SPDIF_OUT*%
%TO.N,unconnected-(U3-14_A0_TX3_SPDIF_OUT-Pad36)*%
X154940000Y-91440000D03*
%TO.P,U3,37,15_A1_RX3_SPDIF_IN*%
%TO.N,unconnected-(U3-15_A1_RX3_SPDIF_IN-Pad37)*%
X152400000Y-91440000D03*
%TO.P,U3,38,16_A2_RX4_SCL1*%
%TO.N,Net-(U3-16_A2_RX4_SCL1)*%
X149860000Y-91440000D03*
%TO.P,U3,39,17_A3_TX4_SDA1*%
%TO.N,Net-(U3-17_A3_TX4_SDA1)*%
X147320000Y-91440000D03*
%TO.P,U3,40,18_A4_SDA*%
%TO.N,unconnected-(U3-18_A4_SDA-Pad40)*%
X144780000Y-91440000D03*
%TO.P,U3,41,19_A5_SCL*%
%TO.N,unconnected-(U3-19_A5_SCL-Pad41)*%
X142240000Y-91440000D03*
%TO.P,U3,42,20_A6_TX5_LRCLK1*%
%TO.N,unconnected-(U3-20_A6_TX5_LRCLK1-Pad42)*%
X139700000Y-91440000D03*
%TO.P,U3,43,21_A7_RX5_BCLK1*%
%TO.N,unconnected-(U3-21_A7_RX5_BCLK1-Pad43)*%
X137160000Y-91440000D03*
%TO.P,U3,44,22_A8_CTX1*%
%TO.N,unconnected-(U3-22_A8_CTX1-Pad44)*%
X134620000Y-91440000D03*
%TO.P,U3,45,23_A9_CRX1_MCLK1*%
%TO.N,unconnected-(U3-23_A9_CRX1_MCLK1-Pad45)*%
X132080000Y-91440000D03*
%TO.P,U3,46,3V3*%
%TO.N,Net-(U4-Vin)*%
X129540000Y-91440000D03*
%TO.P,U3,47,GND*%
%TO.N,Net-(J6-Pin_1)*%
X127000000Y-91440000D03*
%TO.P,U3,48,VIN*%
%TO.N,Net-(J5-Pin_1)*%
X124460000Y-91440000D03*
%TO.P,U3,49,VUSB*%
%TO.N,unconnected-(U3-VUSB-Pad49)*%
X127000000Y-93980000D03*
%TO.P,U3,50,VBAT*%
%TO.N,unconnected-(U3-VBAT-Pad50)*%
X170180000Y-104140000D03*
%TO.P,U3,51,3V3*%
%TO.N,unconnected-(U3-3V3-Pad51)*%
X170180000Y-101600000D03*
%TO.P,U3,52,GND*%
%TO.N,unconnected-(U3-GND-Pad52)*%
X170180000Y-99060000D03*
%TO.P,U3,53,PROGRAM*%
%TO.N,unconnected-(U3-PROGRAM-Pad53)*%
X170180000Y-96520000D03*
%TO.P,U3,54,ON_OFF*%
%TO.N,unconnected-(U3-ON_OFF-Pad54)*%
X170180000Y-93980000D03*
D12*
%TO.P,U3,55,5V*%
%TO.N,unconnected-(U3-5V-Pad55)*%
X130759200Y-103629200D03*
D13*
%TO.P,U3,56,D-*%
%TO.N,unconnected-(U3-D--Pad56)*%
X133299200Y-103629200D03*
%TO.P,U3,57,D+*%
%TO.N,unconnected-(U3-D+-Pad57)*%
X135839200Y-103629200D03*
%TO.P,U3,58,GND*%
%TO.N,unconnected-(U3-GND-Pad58)*%
X138379200Y-103629200D03*
%TO.P,U3,59,GND*%
%TO.N,unconnected-(U3-GND-Pad59)*%
X140919200Y-103629200D03*
D14*
%TO.P,U3,60,R+*%
%TO.N,unconnected-(U3-R+-Pad60)*%
X137430000Y-93878400D03*
D15*
%TO.P,U3,61,LED*%
%TO.N,unconnected-(U3-LED-Pad61)*%
X137430000Y-95878400D03*
%TO.P,U3,62,T-*%
%TO.N,unconnected-(U3-T--Pad62)*%
X137430000Y-97878400D03*
%TO.P,U3,63,T+*%
%TO.N,unconnected-(U3-T+-Pad63)*%
X139430000Y-97878400D03*
%TO.P,U3,64,GND*%
%TO.N,unconnected-(U3-GND-Pad64)*%
X139430000Y-95878400D03*
%TO.P,U3,65,R-*%
%TO.N,unconnected-(U3-R--Pad65)*%
X139430000Y-93878400D03*
%TO.P,U3,66,D-*%
%TO.N,unconnected-(U3-D--Pad66)*%
X125190000Y-97790000D03*
%TO.P,U3,67,D+*%
%TO.N,unconnected-(U3-D+-Pad67)*%
X125190000Y-100330000D03*
%TD*%
D10*
%TO.P,U2,1,3.3V*%
%TO.N,unconnected-(U2-3.3V-Pad1)*%
X160010000Y-114300000D03*
D11*
%TO.P,U2,2,EN*%
%TO.N,unconnected-(U2-EN-Pad2)*%
X157470000Y-114300000D03*
%TO.P,U2,3,VBAT*%
%TO.N,unconnected-(U2-VBAT-Pad3)*%
X154930000Y-114300000D03*
%TO.P,U2,4,FIX*%
%TO.N,unconnected-(U2-FIX-Pad4)*%
X152390000Y-114300000D03*
%TO.P,U2,5,TX*%
%TO.N,Net-(U2-TX)*%
X149850000Y-114300000D03*
%TO.P,U2,6,RX*%
%TO.N,Net-(U2-RX)*%
X147310000Y-114300000D03*
%TO.P,U2,7,GND*%
%TO.N,Net-(J2-Pin_1)*%
X144770000Y-114300000D03*
%TO.P,U2,8,Vin*%
%TO.N,Net-(U1-VCC)*%
X142230000Y-114300000D03*
%TO.P,U2,9,PPS*%
%TO.N,unconnected-(U2-PPS-Pad9)*%
X139690000Y-114300000D03*
%TD*%
D10*
%TO.P,U1,1,EN*%
%TO.N,unconnected-(U1-EN-Pad1)*%
X168935000Y-114980000D03*
D11*
%TO.P,U1,2,VCC*%
%TO.N,Net-(U1-VCC)*%
X171475000Y-114980000D03*
%TO.P,U1,3,GND*%
%TO.N,Net-(U1-GND)*%
X174015000Y-114980000D03*
%TO.P,U1,4,TXD*%
%TO.N,Net-(U1-TXD)*%
X176555000Y-114980000D03*
%TO.P,U1,5,RXD*%
%TO.N,Net-(U1-RXD)*%
X179095000Y-114980000D03*
%TO.P,U1,6,STATE*%
%TO.N,unconnected-(U1-STATE-Pad6)*%
X181635000Y-114980000D03*
%TD*%
D10*
%TO.P,J6,1,Pin_1*%
%TO.N,Net-(J6-Pin_1)*%
X132080000Y-83820000D03*
%TD*%
%TO.P,J5,1,Pin_1*%
%TO.N,Net-(J5-Pin_1)*%
X124460000Y-83820000D03*
%TD*%
%TO.P,J4,1,Pin_1*%
%TO.N,Net-(J4-Pin_1)*%
X182880000Y-83820000D03*
%TD*%
%TO.P,J3,1,Pin_1*%
%TO.N,Net-(J3-Pin_1)*%
X175260000Y-83820000D03*
%TD*%
%TO.P,J2,1,Pin_1*%
%TO.N,Net-(J2-Pin_1)*%
X124460000Y-114300000D03*
%TD*%
%TO.P,J1,1,Pin_1*%
%TO.N,Net-(J1-Pin_1)*%
X134620000Y-114300000D03*
%TD*%
M02*
