%TF.GenerationSoftware,KiCad,Pcbnew,7.0.7*%
%TF.CreationDate,2025-11-05T22:59:09-06:00*%
%TF.ProjectId,Project2PCB,50726f6a-6563-4743-9250-43422e6b6963,rev?*%
%TF.SameCoordinates,Original*%
%TF.FileFunction,Legend,Top*%
%TF.FilePolarity,Positive*%
%FSLAX46Y46*%
G04 Gerber Fmt 4.6, Leading zero omitted, Abs format (unit mm)*
G04 Created by KiCad (PCBNEW 7.0.7) date 2025-11-05 22:59:09*
%MOMM*%
%LPD*%
G01*
G04 APERTURE LIST*
%ADD10C,0.150000*%
%ADD11C,0.300000*%
%ADD12C,0.120000*%
%ADD13C,0.100000*%
G04 APERTURE END LIST*
D10*
X160356779Y-70309819D02*
X160356779Y-69309819D01*
X160356779Y-69309819D02*
X160690112Y-70024104D01*
X160690112Y-70024104D02*
X161023445Y-69309819D01*
X161023445Y-69309819D02*
X161023445Y-70309819D01*
X161928207Y-70309819D02*
X161928207Y-69786009D01*
X161928207Y-69786009D02*
X161880588Y-69690771D01*
X161880588Y-69690771D02*
X161785350Y-69643152D01*
X161785350Y-69643152D02*
X161594874Y-69643152D01*
X161594874Y-69643152D02*
X161499636Y-69690771D01*
X161928207Y-70262200D02*
X161832969Y-70309819D01*
X161832969Y-70309819D02*
X161594874Y-70309819D01*
X161594874Y-70309819D02*
X161499636Y-70262200D01*
X161499636Y-70262200D02*
X161452017Y-70166961D01*
X161452017Y-70166961D02*
X161452017Y-70071723D01*
X161452017Y-70071723D02*
X161499636Y-69976485D01*
X161499636Y-69976485D02*
X161594874Y-69928866D01*
X161594874Y-69928866D02*
X161832969Y-69928866D01*
X161832969Y-69928866D02*
X161928207Y-69881247D01*
X162261541Y-69643152D02*
X162642493Y-69643152D01*
X162404398Y-69309819D02*
X162404398Y-70166961D01*
X162404398Y-70166961D02*
X162452017Y-70262200D01*
X162452017Y-70262200D02*
X162547255Y-70309819D01*
X162547255Y-70309819D02*
X162642493Y-70309819D01*
X162832970Y-69643152D02*
X163213922Y-69643152D01*
X162975827Y-69309819D02*
X162975827Y-70166961D01*
X162975827Y-70166961D02*
X163023446Y-70262200D01*
X163023446Y-70262200D02*
X163118684Y-70309819D01*
X163118684Y-70309819D02*
X163213922Y-70309819D01*
X163547256Y-70309819D02*
X163547256Y-69309819D01*
X163975827Y-70309819D02*
X163975827Y-69786009D01*
X163975827Y-69786009D02*
X163928208Y-69690771D01*
X163928208Y-69690771D02*
X163832970Y-69643152D01*
X163832970Y-69643152D02*
X163690113Y-69643152D01*
X163690113Y-69643152D02*
X163594875Y-69690771D01*
X163594875Y-69690771D02*
X163547256Y-69738390D01*
X164832970Y-70262200D02*
X164737732Y-70309819D01*
X164737732Y-70309819D02*
X164547256Y-70309819D01*
X164547256Y-70309819D02*
X164452018Y-70262200D01*
X164452018Y-70262200D02*
X164404399Y-70166961D01*
X164404399Y-70166961D02*
X164404399Y-69786009D01*
X164404399Y-69786009D02*
X164452018Y-69690771D01*
X164452018Y-69690771D02*
X164547256Y-69643152D01*
X164547256Y-69643152D02*
X164737732Y-69643152D01*
X164737732Y-69643152D02*
X164832970Y-69690771D01*
X164832970Y-69690771D02*
X164880589Y-69786009D01*
X164880589Y-69786009D02*
X164880589Y-69881247D01*
X164880589Y-69881247D02*
X164404399Y-69976485D01*
X165213923Y-69643152D02*
X165404399Y-70309819D01*
X165404399Y-70309819D02*
X165594875Y-69833628D01*
X165594875Y-69833628D02*
X165785351Y-70309819D01*
X165785351Y-70309819D02*
X165975827Y-69643152D01*
X167452018Y-69786009D02*
X167594875Y-69833628D01*
X167594875Y-69833628D02*
X167642494Y-69881247D01*
X167642494Y-69881247D02*
X167690113Y-69976485D01*
X167690113Y-69976485D02*
X167690113Y-70119342D01*
X167690113Y-70119342D02*
X167642494Y-70214580D01*
X167642494Y-70214580D02*
X167594875Y-70262200D01*
X167594875Y-70262200D02*
X167499637Y-70309819D01*
X167499637Y-70309819D02*
X167118685Y-70309819D01*
X167118685Y-70309819D02*
X167118685Y-69309819D01*
X167118685Y-69309819D02*
X167452018Y-69309819D01*
X167452018Y-69309819D02*
X167547256Y-69357438D01*
X167547256Y-69357438D02*
X167594875Y-69405057D01*
X167594875Y-69405057D02*
X167642494Y-69500295D01*
X167642494Y-69500295D02*
X167642494Y-69595533D01*
X167642494Y-69595533D02*
X167594875Y-69690771D01*
X167594875Y-69690771D02*
X167547256Y-69738390D01*
X167547256Y-69738390D02*
X167452018Y-69786009D01*
X167452018Y-69786009D02*
X167118685Y-69786009D01*
X168118685Y-70309819D02*
X168118685Y-69643152D01*
X168118685Y-69833628D02*
X168166304Y-69738390D01*
X168166304Y-69738390D02*
X168213923Y-69690771D01*
X168213923Y-69690771D02*
X168309161Y-69643152D01*
X168309161Y-69643152D02*
X168404399Y-69643152D01*
X169166304Y-69643152D02*
X169166304Y-70309819D01*
X168737733Y-69643152D02*
X168737733Y-70166961D01*
X168737733Y-70166961D02*
X168785352Y-70262200D01*
X168785352Y-70262200D02*
X168880590Y-70309819D01*
X168880590Y-70309819D02*
X169023447Y-70309819D01*
X169023447Y-70309819D02*
X169118685Y-70262200D01*
X169118685Y-70262200D02*
X169166304Y-70214580D01*
X170023447Y-70262200D02*
X169928209Y-70309819D01*
X169928209Y-70309819D02*
X169737733Y-70309819D01*
X169737733Y-70309819D02*
X169642495Y-70262200D01*
X169642495Y-70262200D02*
X169594876Y-70166961D01*
X169594876Y-70166961D02*
X169594876Y-69786009D01*
X169594876Y-69786009D02*
X169642495Y-69690771D01*
X169642495Y-69690771D02*
X169737733Y-69643152D01*
X169737733Y-69643152D02*
X169928209Y-69643152D01*
X169928209Y-69643152D02*
X170023447Y-69690771D01*
X170023447Y-69690771D02*
X170071066Y-69786009D01*
X170071066Y-69786009D02*
X170071066Y-69881247D01*
X170071066Y-69881247D02*
X169594876Y-69976485D01*
X170547257Y-70262200D02*
X170547257Y-70309819D01*
X170547257Y-70309819D02*
X170499638Y-70405057D01*
X170499638Y-70405057D02*
X170452019Y-70452676D01*
X160928207Y-71824580D02*
X160880588Y-71872200D01*
X160880588Y-71872200D02*
X160737731Y-71919819D01*
X160737731Y-71919819D02*
X160642493Y-71919819D01*
X160642493Y-71919819D02*
X160499636Y-71872200D01*
X160499636Y-71872200D02*
X160404398Y-71776961D01*
X160404398Y-71776961D02*
X160356779Y-71681723D01*
X160356779Y-71681723D02*
X160309160Y-71491247D01*
X160309160Y-71491247D02*
X160309160Y-71348390D01*
X160309160Y-71348390D02*
X160356779Y-71157914D01*
X160356779Y-71157914D02*
X160404398Y-71062676D01*
X160404398Y-71062676D02*
X160499636Y-70967438D01*
X160499636Y-70967438D02*
X160642493Y-70919819D01*
X160642493Y-70919819D02*
X160737731Y-70919819D01*
X160737731Y-70919819D02*
X160880588Y-70967438D01*
X160880588Y-70967438D02*
X160928207Y-71015057D01*
X161356779Y-71919819D02*
X161356779Y-70919819D01*
X161785350Y-71919819D02*
X161785350Y-71396009D01*
X161785350Y-71396009D02*
X161737731Y-71300771D01*
X161737731Y-71300771D02*
X161642493Y-71253152D01*
X161642493Y-71253152D02*
X161499636Y-71253152D01*
X161499636Y-71253152D02*
X161404398Y-71300771D01*
X161404398Y-71300771D02*
X161356779Y-71348390D01*
X162261541Y-71919819D02*
X162261541Y-71253152D01*
X162261541Y-71443628D02*
X162309160Y-71348390D01*
X162309160Y-71348390D02*
X162356779Y-71300771D01*
X162356779Y-71300771D02*
X162452017Y-71253152D01*
X162452017Y-71253152D02*
X162547255Y-71253152D01*
X162880589Y-71919819D02*
X162880589Y-71253152D01*
X162880589Y-70919819D02*
X162832970Y-70967438D01*
X162832970Y-70967438D02*
X162880589Y-71015057D01*
X162880589Y-71015057D02*
X162928208Y-70967438D01*
X162928208Y-70967438D02*
X162880589Y-70919819D01*
X162880589Y-70919819D02*
X162880589Y-71015057D01*
X163309160Y-71872200D02*
X163404398Y-71919819D01*
X163404398Y-71919819D02*
X163594874Y-71919819D01*
X163594874Y-71919819D02*
X163690112Y-71872200D01*
X163690112Y-71872200D02*
X163737731Y-71776961D01*
X163737731Y-71776961D02*
X163737731Y-71729342D01*
X163737731Y-71729342D02*
X163690112Y-71634104D01*
X163690112Y-71634104D02*
X163594874Y-71586485D01*
X163594874Y-71586485D02*
X163452017Y-71586485D01*
X163452017Y-71586485D02*
X163356779Y-71538866D01*
X163356779Y-71538866D02*
X163309160Y-71443628D01*
X163309160Y-71443628D02*
X163309160Y-71396009D01*
X163309160Y-71396009D02*
X163356779Y-71300771D01*
X163356779Y-71300771D02*
X163452017Y-71253152D01*
X163452017Y-71253152D02*
X163594874Y-71253152D01*
X163594874Y-71253152D02*
X163690112Y-71300771D01*
X164023446Y-71253152D02*
X164404398Y-71253152D01*
X164166303Y-70919819D02*
X164166303Y-71776961D01*
X164166303Y-71776961D02*
X164213922Y-71872200D01*
X164213922Y-71872200D02*
X164309160Y-71919819D01*
X164309160Y-71919819D02*
X164404398Y-71919819D01*
X164737732Y-71919819D02*
X164737732Y-71253152D01*
X164737732Y-70919819D02*
X164690113Y-70967438D01*
X164690113Y-70967438D02*
X164737732Y-71015057D01*
X164737732Y-71015057D02*
X164785351Y-70967438D01*
X164785351Y-70967438D02*
X164737732Y-70919819D01*
X164737732Y-70919819D02*
X164737732Y-71015057D01*
X165642493Y-71919819D02*
X165642493Y-71396009D01*
X165642493Y-71396009D02*
X165594874Y-71300771D01*
X165594874Y-71300771D02*
X165499636Y-71253152D01*
X165499636Y-71253152D02*
X165309160Y-71253152D01*
X165309160Y-71253152D02*
X165213922Y-71300771D01*
X165642493Y-71872200D02*
X165547255Y-71919819D01*
X165547255Y-71919819D02*
X165309160Y-71919819D01*
X165309160Y-71919819D02*
X165213922Y-71872200D01*
X165213922Y-71872200D02*
X165166303Y-71776961D01*
X165166303Y-71776961D02*
X165166303Y-71681723D01*
X165166303Y-71681723D02*
X165213922Y-71586485D01*
X165213922Y-71586485D02*
X165309160Y-71538866D01*
X165309160Y-71538866D02*
X165547255Y-71538866D01*
X165547255Y-71538866D02*
X165642493Y-71491247D01*
X166118684Y-71253152D02*
X166118684Y-71919819D01*
X166118684Y-71348390D02*
X166166303Y-71300771D01*
X166166303Y-71300771D02*
X166261541Y-71253152D01*
X166261541Y-71253152D02*
X166404398Y-71253152D01*
X166404398Y-71253152D02*
X166499636Y-71300771D01*
X166499636Y-71300771D02*
X166547255Y-71396009D01*
X166547255Y-71396009D02*
X166547255Y-71919819D01*
X168261541Y-71919819D02*
X167785351Y-71919819D01*
X167785351Y-71919819D02*
X167785351Y-70919819D01*
X169023446Y-71919819D02*
X169023446Y-71396009D01*
X169023446Y-71396009D02*
X168975827Y-71300771D01*
X168975827Y-71300771D02*
X168880589Y-71253152D01*
X168880589Y-71253152D02*
X168690113Y-71253152D01*
X168690113Y-71253152D02*
X168594875Y-71300771D01*
X169023446Y-71872200D02*
X168928208Y-71919819D01*
X168928208Y-71919819D02*
X168690113Y-71919819D01*
X168690113Y-71919819D02*
X168594875Y-71872200D01*
X168594875Y-71872200D02*
X168547256Y-71776961D01*
X168547256Y-71776961D02*
X168547256Y-71681723D01*
X168547256Y-71681723D02*
X168594875Y-71586485D01*
X168594875Y-71586485D02*
X168690113Y-71538866D01*
X168690113Y-71538866D02*
X168928208Y-71538866D01*
X168928208Y-71538866D02*
X169023446Y-71491247D01*
X169499637Y-71253152D02*
X169499637Y-71919819D01*
X169499637Y-71348390D02*
X169547256Y-71300771D01*
X169547256Y-71300771D02*
X169642494Y-71253152D01*
X169642494Y-71253152D02*
X169785351Y-71253152D01*
X169785351Y-71253152D02*
X169880589Y-71300771D01*
X169880589Y-71300771D02*
X169928208Y-71396009D01*
X169928208Y-71396009D02*
X169928208Y-71919819D01*
X170832970Y-71919819D02*
X170832970Y-70919819D01*
X170832970Y-71872200D02*
X170737732Y-71919819D01*
X170737732Y-71919819D02*
X170547256Y-71919819D01*
X170547256Y-71919819D02*
X170452018Y-71872200D01*
X170452018Y-71872200D02*
X170404399Y-71824580D01*
X170404399Y-71824580D02*
X170356780Y-71729342D01*
X170356780Y-71729342D02*
X170356780Y-71443628D01*
X170356780Y-71443628D02*
X170404399Y-71348390D01*
X170404399Y-71348390D02*
X170452018Y-71300771D01*
X170452018Y-71300771D02*
X170547256Y-71253152D01*
X170547256Y-71253152D02*
X170737732Y-71253152D01*
X170737732Y-71253152D02*
X170832970Y-71300771D01*
X171309161Y-71919819D02*
X171309161Y-71253152D01*
X171309161Y-71443628D02*
X171356780Y-71348390D01*
X171356780Y-71348390D02*
X171404399Y-71300771D01*
X171404399Y-71300771D02*
X171499637Y-71253152D01*
X171499637Y-71253152D02*
X171594875Y-71253152D01*
X172356780Y-71253152D02*
X172356780Y-71919819D01*
X171928209Y-71253152D02*
X171928209Y-71776961D01*
X171928209Y-71776961D02*
X171975828Y-71872200D01*
X171975828Y-71872200D02*
X172071066Y-71919819D01*
X172071066Y-71919819D02*
X172213923Y-71919819D01*
X172213923Y-71919819D02*
X172309161Y-71872200D01*
X172309161Y-71872200D02*
X172356780Y-71824580D01*
X172832971Y-71919819D02*
X172832971Y-71253152D01*
X172832971Y-71348390D02*
X172880590Y-71300771D01*
X172880590Y-71300771D02*
X172975828Y-71253152D01*
X172975828Y-71253152D02*
X173118685Y-71253152D01*
X173118685Y-71253152D02*
X173213923Y-71300771D01*
X173213923Y-71300771D02*
X173261542Y-71396009D01*
X173261542Y-71396009D02*
X173261542Y-71919819D01*
X173261542Y-71396009D02*
X173309161Y-71300771D01*
X173309161Y-71300771D02*
X173404399Y-71253152D01*
X173404399Y-71253152D02*
X173547256Y-71253152D01*
X173547256Y-71253152D02*
X173642495Y-71300771D01*
X173642495Y-71300771D02*
X173690114Y-71396009D01*
X173690114Y-71396009D02*
X173690114Y-71919819D01*
X174213923Y-71872200D02*
X174213923Y-71919819D01*
X174213923Y-71919819D02*
X174166304Y-72015057D01*
X174166304Y-72015057D02*
X174118685Y-72062676D01*
X160690112Y-73006009D02*
X160832969Y-73053628D01*
X160832969Y-73053628D02*
X160880588Y-73101247D01*
X160880588Y-73101247D02*
X160928207Y-73196485D01*
X160928207Y-73196485D02*
X160928207Y-73339342D01*
X160928207Y-73339342D02*
X160880588Y-73434580D01*
X160880588Y-73434580D02*
X160832969Y-73482200D01*
X160832969Y-73482200D02*
X160737731Y-73529819D01*
X160737731Y-73529819D02*
X160356779Y-73529819D01*
X160356779Y-73529819D02*
X160356779Y-72529819D01*
X160356779Y-72529819D02*
X160690112Y-72529819D01*
X160690112Y-72529819D02*
X160785350Y-72577438D01*
X160785350Y-72577438D02*
X160832969Y-72625057D01*
X160832969Y-72625057D02*
X160880588Y-72720295D01*
X160880588Y-72720295D02*
X160880588Y-72815533D01*
X160880588Y-72815533D02*
X160832969Y-72910771D01*
X160832969Y-72910771D02*
X160785350Y-72958390D01*
X160785350Y-72958390D02*
X160690112Y-73006009D01*
X160690112Y-73006009D02*
X160356779Y-73006009D01*
X161356779Y-73529819D02*
X161356779Y-72863152D01*
X161356779Y-73053628D02*
X161404398Y-72958390D01*
X161404398Y-72958390D02*
X161452017Y-72910771D01*
X161452017Y-72910771D02*
X161547255Y-72863152D01*
X161547255Y-72863152D02*
X161642493Y-72863152D01*
X162404398Y-73529819D02*
X162404398Y-73006009D01*
X162404398Y-73006009D02*
X162356779Y-72910771D01*
X162356779Y-72910771D02*
X162261541Y-72863152D01*
X162261541Y-72863152D02*
X162071065Y-72863152D01*
X162071065Y-72863152D02*
X161975827Y-72910771D01*
X162404398Y-73482200D02*
X162309160Y-73529819D01*
X162309160Y-73529819D02*
X162071065Y-73529819D01*
X162071065Y-73529819D02*
X161975827Y-73482200D01*
X161975827Y-73482200D02*
X161928208Y-73386961D01*
X161928208Y-73386961D02*
X161928208Y-73291723D01*
X161928208Y-73291723D02*
X161975827Y-73196485D01*
X161975827Y-73196485D02*
X162071065Y-73148866D01*
X162071065Y-73148866D02*
X162309160Y-73148866D01*
X162309160Y-73148866D02*
X162404398Y-73101247D01*
X163309160Y-73529819D02*
X163309160Y-72529819D01*
X163309160Y-73482200D02*
X163213922Y-73529819D01*
X163213922Y-73529819D02*
X163023446Y-73529819D01*
X163023446Y-73529819D02*
X162928208Y-73482200D01*
X162928208Y-73482200D02*
X162880589Y-73434580D01*
X162880589Y-73434580D02*
X162832970Y-73339342D01*
X162832970Y-73339342D02*
X162832970Y-73053628D01*
X162832970Y-73053628D02*
X162880589Y-72958390D01*
X162880589Y-72958390D02*
X162928208Y-72910771D01*
X162928208Y-72910771D02*
X163023446Y-72863152D01*
X163023446Y-72863152D02*
X163213922Y-72863152D01*
X163213922Y-72863152D02*
X163309160Y-72910771D01*
X164166303Y-73482200D02*
X164071065Y-73529819D01*
X164071065Y-73529819D02*
X163880589Y-73529819D01*
X163880589Y-73529819D02*
X163785351Y-73482200D01*
X163785351Y-73482200D02*
X163737732Y-73386961D01*
X163737732Y-73386961D02*
X163737732Y-73006009D01*
X163737732Y-73006009D02*
X163785351Y-72910771D01*
X163785351Y-72910771D02*
X163880589Y-72863152D01*
X163880589Y-72863152D02*
X164071065Y-72863152D01*
X164071065Y-72863152D02*
X164166303Y-72910771D01*
X164166303Y-72910771D02*
X164213922Y-73006009D01*
X164213922Y-73006009D02*
X164213922Y-73101247D01*
X164213922Y-73101247D02*
X163737732Y-73196485D01*
X164642494Y-72863152D02*
X164642494Y-73529819D01*
X164642494Y-72958390D02*
X164690113Y-72910771D01*
X164690113Y-72910771D02*
X164785351Y-72863152D01*
X164785351Y-72863152D02*
X164928208Y-72863152D01*
X164928208Y-72863152D02*
X165023446Y-72910771D01*
X165023446Y-72910771D02*
X165071065Y-73006009D01*
X165071065Y-73006009D02*
X165071065Y-73529819D01*
X166213923Y-72529819D02*
X166452018Y-73529819D01*
X166452018Y-73529819D02*
X166642494Y-72815533D01*
X166642494Y-72815533D02*
X166832970Y-73529819D01*
X166832970Y-73529819D02*
X167071066Y-72529819D01*
X167452018Y-73529819D02*
X167452018Y-72529819D01*
X167880589Y-73529819D02*
X167880589Y-73006009D01*
X167880589Y-73006009D02*
X167832970Y-72910771D01*
X167832970Y-72910771D02*
X167737732Y-72863152D01*
X167737732Y-72863152D02*
X167594875Y-72863152D01*
X167594875Y-72863152D02*
X167499637Y-72910771D01*
X167499637Y-72910771D02*
X167452018Y-72958390D01*
X168356780Y-73529819D02*
X168356780Y-72863152D01*
X168356780Y-72529819D02*
X168309161Y-72577438D01*
X168309161Y-72577438D02*
X168356780Y-72625057D01*
X168356780Y-72625057D02*
X168404399Y-72577438D01*
X168404399Y-72577438D02*
X168356780Y-72529819D01*
X168356780Y-72529819D02*
X168356780Y-72625057D01*
X168690113Y-72863152D02*
X169071065Y-72863152D01*
X168832970Y-72529819D02*
X168832970Y-73386961D01*
X168832970Y-73386961D02*
X168880589Y-73482200D01*
X168880589Y-73482200D02*
X168975827Y-73529819D01*
X168975827Y-73529819D02*
X169071065Y-73529819D01*
X169785351Y-73482200D02*
X169690113Y-73529819D01*
X169690113Y-73529819D02*
X169499637Y-73529819D01*
X169499637Y-73529819D02*
X169404399Y-73482200D01*
X169404399Y-73482200D02*
X169356780Y-73386961D01*
X169356780Y-73386961D02*
X169356780Y-73006009D01*
X169356780Y-73006009D02*
X169404399Y-72910771D01*
X169404399Y-72910771D02*
X169499637Y-72863152D01*
X169499637Y-72863152D02*
X169690113Y-72863152D01*
X169690113Y-72863152D02*
X169785351Y-72910771D01*
X169785351Y-72910771D02*
X169832970Y-73006009D01*
X169832970Y-73006009D02*
X169832970Y-73101247D01*
X169832970Y-73101247D02*
X169356780Y-73196485D01*
X150196779Y-68856009D02*
X150530112Y-68856009D01*
X150672969Y-69379819D02*
X150196779Y-69379819D01*
X150196779Y-69379819D02*
X150196779Y-68379819D01*
X150196779Y-68379819D02*
X150672969Y-68379819D01*
X151672969Y-69284580D02*
X151625350Y-69332200D01*
X151625350Y-69332200D02*
X151482493Y-69379819D01*
X151482493Y-69379819D02*
X151387255Y-69379819D01*
X151387255Y-69379819D02*
X151244398Y-69332200D01*
X151244398Y-69332200D02*
X151149160Y-69236961D01*
X151149160Y-69236961D02*
X151101541Y-69141723D01*
X151101541Y-69141723D02*
X151053922Y-68951247D01*
X151053922Y-68951247D02*
X151053922Y-68808390D01*
X151053922Y-68808390D02*
X151101541Y-68617914D01*
X151101541Y-68617914D02*
X151149160Y-68522676D01*
X151149160Y-68522676D02*
X151244398Y-68427438D01*
X151244398Y-68427438D02*
X151387255Y-68379819D01*
X151387255Y-68379819D02*
X151482493Y-68379819D01*
X151482493Y-68379819D02*
X151625350Y-68427438D01*
X151625350Y-68427438D02*
X151672969Y-68475057D01*
X152101541Y-68856009D02*
X152434874Y-68856009D01*
X152577731Y-69379819D02*
X152101541Y-69379819D01*
X152101541Y-69379819D02*
X152101541Y-68379819D01*
X152101541Y-68379819D02*
X152577731Y-68379819D01*
X153006303Y-69379819D02*
X153006303Y-68379819D01*
X153006303Y-68379819D02*
X153577731Y-69379819D01*
X153577731Y-69379819D02*
X153577731Y-68379819D01*
X154482493Y-68713152D02*
X154482493Y-69379819D01*
X154244398Y-68332200D02*
X154006303Y-69046485D01*
X154006303Y-69046485D02*
X154625350Y-69046485D01*
X155196779Y-68379819D02*
X155292017Y-68379819D01*
X155292017Y-68379819D02*
X155387255Y-68427438D01*
X155387255Y-68427438D02*
X155434874Y-68475057D01*
X155434874Y-68475057D02*
X155482493Y-68570295D01*
X155482493Y-68570295D02*
X155530112Y-68760771D01*
X155530112Y-68760771D02*
X155530112Y-68998866D01*
X155530112Y-68998866D02*
X155482493Y-69189342D01*
X155482493Y-69189342D02*
X155434874Y-69284580D01*
X155434874Y-69284580D02*
X155387255Y-69332200D01*
X155387255Y-69332200D02*
X155292017Y-69379819D01*
X155292017Y-69379819D02*
X155196779Y-69379819D01*
X155196779Y-69379819D02*
X155101541Y-69332200D01*
X155101541Y-69332200D02*
X155053922Y-69284580D01*
X155053922Y-69284580D02*
X155006303Y-69189342D01*
X155006303Y-69189342D02*
X154958684Y-68998866D01*
X154958684Y-68998866D02*
X154958684Y-68760771D01*
X154958684Y-68760771D02*
X155006303Y-68570295D01*
X155006303Y-68570295D02*
X155053922Y-68475057D01*
X155053922Y-68475057D02*
X155101541Y-68427438D01*
X155101541Y-68427438D02*
X155196779Y-68379819D01*
X156482493Y-69379819D02*
X155911065Y-69379819D01*
X156196779Y-69379819D02*
X156196779Y-68379819D01*
X156196779Y-68379819D02*
X156101541Y-68522676D01*
X156101541Y-68522676D02*
X156006303Y-68617914D01*
X156006303Y-68617914D02*
X155911065Y-68665533D01*
X156815827Y-68379819D02*
X157434874Y-68379819D01*
X157434874Y-68379819D02*
X157101541Y-68760771D01*
X157101541Y-68760771D02*
X157244398Y-68760771D01*
X157244398Y-68760771D02*
X157339636Y-68808390D01*
X157339636Y-68808390D02*
X157387255Y-68856009D01*
X157387255Y-68856009D02*
X157434874Y-68951247D01*
X157434874Y-68951247D02*
X157434874Y-69189342D01*
X157434874Y-69189342D02*
X157387255Y-69284580D01*
X157387255Y-69284580D02*
X157339636Y-69332200D01*
X157339636Y-69332200D02*
X157244398Y-69379819D01*
X157244398Y-69379819D02*
X156958684Y-69379819D01*
X156958684Y-69379819D02*
X156863446Y-69332200D01*
X156863446Y-69332200D02*
X156815827Y-69284580D01*
X150720588Y-70037438D02*
X150625350Y-69989819D01*
X150625350Y-69989819D02*
X150482493Y-69989819D01*
X150482493Y-69989819D02*
X150339636Y-70037438D01*
X150339636Y-70037438D02*
X150244398Y-70132676D01*
X150244398Y-70132676D02*
X150196779Y-70227914D01*
X150196779Y-70227914D02*
X150149160Y-70418390D01*
X150149160Y-70418390D02*
X150149160Y-70561247D01*
X150149160Y-70561247D02*
X150196779Y-70751723D01*
X150196779Y-70751723D02*
X150244398Y-70846961D01*
X150244398Y-70846961D02*
X150339636Y-70942200D01*
X150339636Y-70942200D02*
X150482493Y-70989819D01*
X150482493Y-70989819D02*
X150577731Y-70989819D01*
X150577731Y-70989819D02*
X150720588Y-70942200D01*
X150720588Y-70942200D02*
X150768207Y-70894580D01*
X150768207Y-70894580D02*
X150768207Y-70561247D01*
X150768207Y-70561247D02*
X150577731Y-70561247D01*
X151196779Y-70989819D02*
X151196779Y-70323152D01*
X151196779Y-70513628D02*
X151244398Y-70418390D01*
X151244398Y-70418390D02*
X151292017Y-70370771D01*
X151292017Y-70370771D02*
X151387255Y-70323152D01*
X151387255Y-70323152D02*
X151482493Y-70323152D01*
X151958684Y-70989819D02*
X151863446Y-70942200D01*
X151863446Y-70942200D02*
X151815827Y-70894580D01*
X151815827Y-70894580D02*
X151768208Y-70799342D01*
X151768208Y-70799342D02*
X151768208Y-70513628D01*
X151768208Y-70513628D02*
X151815827Y-70418390D01*
X151815827Y-70418390D02*
X151863446Y-70370771D01*
X151863446Y-70370771D02*
X151958684Y-70323152D01*
X151958684Y-70323152D02*
X152101541Y-70323152D01*
X152101541Y-70323152D02*
X152196779Y-70370771D01*
X152196779Y-70370771D02*
X152244398Y-70418390D01*
X152244398Y-70418390D02*
X152292017Y-70513628D01*
X152292017Y-70513628D02*
X152292017Y-70799342D01*
X152292017Y-70799342D02*
X152244398Y-70894580D01*
X152244398Y-70894580D02*
X152196779Y-70942200D01*
X152196779Y-70942200D02*
X152101541Y-70989819D01*
X152101541Y-70989819D02*
X151958684Y-70989819D01*
X153149160Y-70323152D02*
X153149160Y-70989819D01*
X152720589Y-70323152D02*
X152720589Y-70846961D01*
X152720589Y-70846961D02*
X152768208Y-70942200D01*
X152768208Y-70942200D02*
X152863446Y-70989819D01*
X152863446Y-70989819D02*
X153006303Y-70989819D01*
X153006303Y-70989819D02*
X153101541Y-70942200D01*
X153101541Y-70942200D02*
X153149160Y-70894580D01*
X153625351Y-70323152D02*
X153625351Y-71323152D01*
X153625351Y-70370771D02*
X153720589Y-70323152D01*
X153720589Y-70323152D02*
X153911065Y-70323152D01*
X153911065Y-70323152D02*
X154006303Y-70370771D01*
X154006303Y-70370771D02*
X154053922Y-70418390D01*
X154053922Y-70418390D02*
X154101541Y-70513628D01*
X154101541Y-70513628D02*
X154101541Y-70799342D01*
X154101541Y-70799342D02*
X154053922Y-70894580D01*
X154053922Y-70894580D02*
X154006303Y-70942200D01*
X154006303Y-70942200D02*
X153911065Y-70989819D01*
X153911065Y-70989819D02*
X153720589Y-70989819D01*
X153720589Y-70989819D02*
X153625351Y-70942200D01*
X155815827Y-70989819D02*
X155244399Y-70989819D01*
X155530113Y-70989819D02*
X155530113Y-69989819D01*
X155530113Y-69989819D02*
X155434875Y-70132676D01*
X155434875Y-70132676D02*
X155339637Y-70227914D01*
X155339637Y-70227914D02*
X155244399Y-70275533D01*
X156720589Y-69989819D02*
X156244399Y-69989819D01*
X156244399Y-69989819D02*
X156196780Y-70466009D01*
X156196780Y-70466009D02*
X156244399Y-70418390D01*
X156244399Y-70418390D02*
X156339637Y-70370771D01*
X156339637Y-70370771D02*
X156577732Y-70370771D01*
X156577732Y-70370771D02*
X156672970Y-70418390D01*
X156672970Y-70418390D02*
X156720589Y-70466009D01*
X156720589Y-70466009D02*
X156768208Y-70561247D01*
X156768208Y-70561247D02*
X156768208Y-70799342D01*
X156768208Y-70799342D02*
X156720589Y-70894580D01*
X156720589Y-70894580D02*
X156672970Y-70942200D01*
X156672970Y-70942200D02*
X156577732Y-70989819D01*
X156577732Y-70989819D02*
X156339637Y-70989819D01*
X156339637Y-70989819D02*
X156244399Y-70942200D01*
X156244399Y-70942200D02*
X156196780Y-70894580D01*
D11*
X122474510Y-78540828D02*
X122474510Y-77040828D01*
X122474510Y-77040828D02*
X123045939Y-77040828D01*
X123045939Y-77040828D02*
X123188796Y-77112257D01*
X123188796Y-77112257D02*
X123260225Y-77183685D01*
X123260225Y-77183685D02*
X123331653Y-77326542D01*
X123331653Y-77326542D02*
X123331653Y-77540828D01*
X123331653Y-77540828D02*
X123260225Y-77683685D01*
X123260225Y-77683685D02*
X123188796Y-77755114D01*
X123188796Y-77755114D02*
X123045939Y-77826542D01*
X123045939Y-77826542D02*
X122474510Y-77826542D01*
X124188796Y-78540828D02*
X124045939Y-78469400D01*
X124045939Y-78469400D02*
X123974510Y-78397971D01*
X123974510Y-78397971D02*
X123903082Y-78255114D01*
X123903082Y-78255114D02*
X123903082Y-77826542D01*
X123903082Y-77826542D02*
X123974510Y-77683685D01*
X123974510Y-77683685D02*
X124045939Y-77612257D01*
X124045939Y-77612257D02*
X124188796Y-77540828D01*
X124188796Y-77540828D02*
X124403082Y-77540828D01*
X124403082Y-77540828D02*
X124545939Y-77612257D01*
X124545939Y-77612257D02*
X124617368Y-77683685D01*
X124617368Y-77683685D02*
X124688796Y-77826542D01*
X124688796Y-77826542D02*
X124688796Y-78255114D01*
X124688796Y-78255114D02*
X124617368Y-78397971D01*
X124617368Y-78397971D02*
X124545939Y-78469400D01*
X124545939Y-78469400D02*
X124403082Y-78540828D01*
X124403082Y-78540828D02*
X124188796Y-78540828D01*
X125188796Y-77540828D02*
X125474511Y-78540828D01*
X125474511Y-78540828D02*
X125760225Y-77826542D01*
X125760225Y-77826542D02*
X126045939Y-78540828D01*
X126045939Y-78540828D02*
X126331653Y-77540828D01*
X127474511Y-78469400D02*
X127331654Y-78540828D01*
X127331654Y-78540828D02*
X127045940Y-78540828D01*
X127045940Y-78540828D02*
X126903082Y-78469400D01*
X126903082Y-78469400D02*
X126831654Y-78326542D01*
X126831654Y-78326542D02*
X126831654Y-77755114D01*
X126831654Y-77755114D02*
X126903082Y-77612257D01*
X126903082Y-77612257D02*
X127045940Y-77540828D01*
X127045940Y-77540828D02*
X127331654Y-77540828D01*
X127331654Y-77540828D02*
X127474511Y-77612257D01*
X127474511Y-77612257D02*
X127545940Y-77755114D01*
X127545940Y-77755114D02*
X127545940Y-77897971D01*
X127545940Y-77897971D02*
X126831654Y-78040828D01*
X128188796Y-78540828D02*
X128188796Y-77540828D01*
X128188796Y-77826542D02*
X128260225Y-77683685D01*
X128260225Y-77683685D02*
X128331654Y-77612257D01*
X128331654Y-77612257D02*
X128474511Y-77540828D01*
X128474511Y-77540828D02*
X128617368Y-77540828D01*
X130260224Y-78540828D02*
X130260224Y-77540828D01*
X130260224Y-77040828D02*
X130188796Y-77112257D01*
X130188796Y-77112257D02*
X130260224Y-77183685D01*
X130260224Y-77183685D02*
X130331653Y-77112257D01*
X130331653Y-77112257D02*
X130260224Y-77040828D01*
X130260224Y-77040828D02*
X130260224Y-77183685D01*
X130974510Y-77540828D02*
X130974510Y-78540828D01*
X130974510Y-77683685D02*
X131045939Y-77612257D01*
X131045939Y-77612257D02*
X131188796Y-77540828D01*
X131188796Y-77540828D02*
X131403082Y-77540828D01*
X131403082Y-77540828D02*
X131545939Y-77612257D01*
X131545939Y-77612257D02*
X131617368Y-77755114D01*
X131617368Y-77755114D02*
X131617368Y-78540828D01*
X178854510Y-110775114D02*
X179068796Y-110846542D01*
X179068796Y-110846542D02*
X179140225Y-110917971D01*
X179140225Y-110917971D02*
X179211653Y-111060828D01*
X179211653Y-111060828D02*
X179211653Y-111275114D01*
X179211653Y-111275114D02*
X179140225Y-111417971D01*
X179140225Y-111417971D02*
X179068796Y-111489400D01*
X179068796Y-111489400D02*
X178925939Y-111560828D01*
X178925939Y-111560828D02*
X178354510Y-111560828D01*
X178354510Y-111560828D02*
X178354510Y-110060828D01*
X178354510Y-110060828D02*
X178854510Y-110060828D01*
X178854510Y-110060828D02*
X178997368Y-110132257D01*
X178997368Y-110132257D02*
X179068796Y-110203685D01*
X179068796Y-110203685D02*
X179140225Y-110346542D01*
X179140225Y-110346542D02*
X179140225Y-110489400D01*
X179140225Y-110489400D02*
X179068796Y-110632257D01*
X179068796Y-110632257D02*
X178997368Y-110703685D01*
X178997368Y-110703685D02*
X178854510Y-110775114D01*
X178854510Y-110775114D02*
X178354510Y-110775114D01*
X179640225Y-110060828D02*
X180497368Y-110060828D01*
X180068796Y-111560828D02*
X180068796Y-110060828D01*
X136960828Y-80725489D02*
X135460828Y-80725489D01*
X136960828Y-80011203D02*
X135460828Y-80011203D01*
X135460828Y-80011203D02*
X136532257Y-79511203D01*
X136532257Y-79511203D02*
X135460828Y-79011203D01*
X135460828Y-79011203D02*
X136960828Y-79011203D01*
X135460828Y-78296917D02*
X136675114Y-78296917D01*
X136675114Y-78296917D02*
X136817971Y-78225488D01*
X136817971Y-78225488D02*
X136889400Y-78154060D01*
X136889400Y-78154060D02*
X136960828Y-78011202D01*
X136960828Y-78011202D02*
X136960828Y-77725488D01*
X136960828Y-77725488D02*
X136889400Y-77582631D01*
X136889400Y-77582631D02*
X136817971Y-77511202D01*
X136817971Y-77511202D02*
X136675114Y-77439774D01*
X136675114Y-77439774D02*
X135460828Y-77439774D01*
X120935114Y-100545489D02*
X121006542Y-100331203D01*
X121006542Y-100331203D02*
X121077971Y-100259774D01*
X121077971Y-100259774D02*
X121220828Y-100188346D01*
X121220828Y-100188346D02*
X121435114Y-100188346D01*
X121435114Y-100188346D02*
X121577971Y-100259774D01*
X121577971Y-100259774D02*
X121649400Y-100331203D01*
X121649400Y-100331203D02*
X121720828Y-100474060D01*
X121720828Y-100474060D02*
X121720828Y-101045489D01*
X121720828Y-101045489D02*
X120220828Y-101045489D01*
X120220828Y-101045489D02*
X120220828Y-100545489D01*
X120220828Y-100545489D02*
X120292257Y-100402632D01*
X120292257Y-100402632D02*
X120363685Y-100331203D01*
X120363685Y-100331203D02*
X120506542Y-100259774D01*
X120506542Y-100259774D02*
X120649400Y-100259774D01*
X120649400Y-100259774D02*
X120792257Y-100331203D01*
X120792257Y-100331203D02*
X120863685Y-100402632D01*
X120863685Y-100402632D02*
X120935114Y-100545489D01*
X120935114Y-100545489D02*
X120935114Y-101045489D01*
X121720828Y-99545489D02*
X120720828Y-99545489D01*
X121006542Y-99545489D02*
X120863685Y-99474060D01*
X120863685Y-99474060D02*
X120792257Y-99402632D01*
X120792257Y-99402632D02*
X120720828Y-99259774D01*
X120720828Y-99259774D02*
X120720828Y-99116917D01*
X121720828Y-97974061D02*
X120935114Y-97974061D01*
X120935114Y-97974061D02*
X120792257Y-98045489D01*
X120792257Y-98045489D02*
X120720828Y-98188346D01*
X120720828Y-98188346D02*
X120720828Y-98474061D01*
X120720828Y-98474061D02*
X120792257Y-98616918D01*
X121649400Y-97974061D02*
X121720828Y-98116918D01*
X121720828Y-98116918D02*
X121720828Y-98474061D01*
X121720828Y-98474061D02*
X121649400Y-98616918D01*
X121649400Y-98616918D02*
X121506542Y-98688346D01*
X121506542Y-98688346D02*
X121363685Y-98688346D01*
X121363685Y-98688346D02*
X121220828Y-98616918D01*
X121220828Y-98616918D02*
X121149400Y-98474061D01*
X121149400Y-98474061D02*
X121149400Y-98116918D01*
X121149400Y-98116918D02*
X121077971Y-97974061D01*
X121720828Y-97259775D02*
X120720828Y-97259775D01*
X120220828Y-97259775D02*
X120292257Y-97331203D01*
X120292257Y-97331203D02*
X120363685Y-97259775D01*
X120363685Y-97259775D02*
X120292257Y-97188346D01*
X120292257Y-97188346D02*
X120220828Y-97259775D01*
X120220828Y-97259775D02*
X120363685Y-97259775D01*
X120720828Y-96545489D02*
X121720828Y-96545489D01*
X120863685Y-96545489D02*
X120792257Y-96474060D01*
X120792257Y-96474060D02*
X120720828Y-96331203D01*
X120720828Y-96331203D02*
X120720828Y-96116917D01*
X120720828Y-96116917D02*
X120792257Y-95974060D01*
X120792257Y-95974060D02*
X120935114Y-95902632D01*
X120935114Y-95902632D02*
X121720828Y-95902632D01*
X141040225Y-110132257D02*
X140897368Y-110060828D01*
X140897368Y-110060828D02*
X140683082Y-110060828D01*
X140683082Y-110060828D02*
X140468796Y-110132257D01*
X140468796Y-110132257D02*
X140325939Y-110275114D01*
X140325939Y-110275114D02*
X140254510Y-110417971D01*
X140254510Y-110417971D02*
X140183082Y-110703685D01*
X140183082Y-110703685D02*
X140183082Y-110917971D01*
X140183082Y-110917971D02*
X140254510Y-111203685D01*
X140254510Y-111203685D02*
X140325939Y-111346542D01*
X140325939Y-111346542D02*
X140468796Y-111489400D01*
X140468796Y-111489400D02*
X140683082Y-111560828D01*
X140683082Y-111560828D02*
X140825939Y-111560828D01*
X140825939Y-111560828D02*
X141040225Y-111489400D01*
X141040225Y-111489400D02*
X141111653Y-111417971D01*
X141111653Y-111417971D02*
X141111653Y-110917971D01*
X141111653Y-110917971D02*
X140825939Y-110917971D01*
X141754510Y-111560828D02*
X141754510Y-110060828D01*
X141754510Y-110060828D02*
X142325939Y-110060828D01*
X142325939Y-110060828D02*
X142468796Y-110132257D01*
X142468796Y-110132257D02*
X142540225Y-110203685D01*
X142540225Y-110203685D02*
X142611653Y-110346542D01*
X142611653Y-110346542D02*
X142611653Y-110560828D01*
X142611653Y-110560828D02*
X142540225Y-110703685D01*
X142540225Y-110703685D02*
X142468796Y-110775114D01*
X142468796Y-110775114D02*
X142325939Y-110846542D01*
X142325939Y-110846542D02*
X141754510Y-110846542D01*
X143183082Y-111489400D02*
X143397368Y-111560828D01*
X143397368Y-111560828D02*
X143754510Y-111560828D01*
X143754510Y-111560828D02*
X143897368Y-111489400D01*
X143897368Y-111489400D02*
X143968796Y-111417971D01*
X143968796Y-111417971D02*
X144040225Y-111275114D01*
X144040225Y-111275114D02*
X144040225Y-111132257D01*
X144040225Y-111132257D02*
X143968796Y-110989400D01*
X143968796Y-110989400D02*
X143897368Y-110917971D01*
X143897368Y-110917971D02*
X143754510Y-110846542D01*
X143754510Y-110846542D02*
X143468796Y-110775114D01*
X143468796Y-110775114D02*
X143325939Y-110703685D01*
X143325939Y-110703685D02*
X143254510Y-110632257D01*
X143254510Y-110632257D02*
X143183082Y-110489400D01*
X143183082Y-110489400D02*
X143183082Y-110346542D01*
X143183082Y-110346542D02*
X143254510Y-110203685D01*
X143254510Y-110203685D02*
X143325939Y-110132257D01*
X143325939Y-110132257D02*
X143468796Y-110060828D01*
X143468796Y-110060828D02*
X143825939Y-110060828D01*
X143825939Y-110060828D02*
X144040225Y-110132257D01*
D10*
X138938095Y-67804819D02*
X138938095Y-68614342D01*
X138938095Y-68614342D02*
X138985714Y-68709580D01*
X138985714Y-68709580D02*
X139033333Y-68757200D01*
X139033333Y-68757200D02*
X139128571Y-68804819D01*
X139128571Y-68804819D02*
X139319047Y-68804819D01*
X139319047Y-68804819D02*
X139414285Y-68757200D01*
X139414285Y-68757200D02*
X139461904Y-68709580D01*
X139461904Y-68709580D02*
X139509523Y-68614342D01*
X139509523Y-68614342D02*
X139509523Y-67804819D01*
X140414285Y-68138152D02*
X140414285Y-68804819D01*
X140176190Y-67757200D02*
X139938095Y-68471485D01*
X139938095Y-68471485D02*
X140557142Y-68471485D01*
X152908095Y-88354819D02*
X152908095Y-89164342D01*
X152908095Y-89164342D02*
X152955714Y-89259580D01*
X152955714Y-89259580D02*
X153003333Y-89307200D01*
X153003333Y-89307200D02*
X153098571Y-89354819D01*
X153098571Y-89354819D02*
X153289047Y-89354819D01*
X153289047Y-89354819D02*
X153384285Y-89307200D01*
X153384285Y-89307200D02*
X153431904Y-89259580D01*
X153431904Y-89259580D02*
X153479523Y-89164342D01*
X153479523Y-89164342D02*
X153479523Y-88354819D01*
X153860476Y-88354819D02*
X154479523Y-88354819D01*
X154479523Y-88354819D02*
X154146190Y-88735771D01*
X154146190Y-88735771D02*
X154289047Y-88735771D01*
X154289047Y-88735771D02*
X154384285Y-88783390D01*
X154384285Y-88783390D02*
X154431904Y-88831009D01*
X154431904Y-88831009D02*
X154479523Y-88926247D01*
X154479523Y-88926247D02*
X154479523Y-89164342D01*
X154479523Y-89164342D02*
X154431904Y-89259580D01*
X154431904Y-89259580D02*
X154384285Y-89307200D01*
X154384285Y-89307200D02*
X154289047Y-89354819D01*
X154289047Y-89354819D02*
X154003333Y-89354819D01*
X154003333Y-89354819D02*
X153908095Y-89307200D01*
X153908095Y-89307200D02*
X153860476Y-89259580D01*
X141536009Y-98640543D02*
X141536009Y-98307210D01*
X142059819Y-98164353D02*
X142059819Y-98640543D01*
X142059819Y-98640543D02*
X141059819Y-98640543D01*
X141059819Y-98640543D02*
X141059819Y-98164353D01*
X141393152Y-97878638D02*
X141393152Y-97497686D01*
X141059819Y-97735781D02*
X141916961Y-97735781D01*
X141916961Y-97735781D02*
X142012200Y-97688162D01*
X142012200Y-97688162D02*
X142059819Y-97592924D01*
X142059819Y-97592924D02*
X142059819Y-97497686D01*
X142059819Y-97164352D02*
X141059819Y-97164352D01*
X142059819Y-96735781D02*
X141536009Y-96735781D01*
X141536009Y-96735781D02*
X141440771Y-96783400D01*
X141440771Y-96783400D02*
X141393152Y-96878638D01*
X141393152Y-96878638D02*
X141393152Y-97021495D01*
X141393152Y-97021495D02*
X141440771Y-97116733D01*
X141440771Y-97116733D02*
X141488390Y-97164352D01*
X142012200Y-95878638D02*
X142059819Y-95973876D01*
X142059819Y-95973876D02*
X142059819Y-96164352D01*
X142059819Y-96164352D02*
X142012200Y-96259590D01*
X142012200Y-96259590D02*
X141916961Y-96307209D01*
X141916961Y-96307209D02*
X141536009Y-96307209D01*
X141536009Y-96307209D02*
X141440771Y-96259590D01*
X141440771Y-96259590D02*
X141393152Y-96164352D01*
X141393152Y-96164352D02*
X141393152Y-95973876D01*
X141393152Y-95973876D02*
X141440771Y-95878638D01*
X141440771Y-95878638D02*
X141536009Y-95831019D01*
X141536009Y-95831019D02*
X141631247Y-95831019D01*
X141631247Y-95831019D02*
X141726485Y-96307209D01*
X142059819Y-95402447D02*
X141393152Y-95402447D01*
X141583628Y-95402447D02*
X141488390Y-95354828D01*
X141488390Y-95354828D02*
X141440771Y-95307209D01*
X141440771Y-95307209D02*
X141393152Y-95211971D01*
X141393152Y-95211971D02*
X141393152Y-95116733D01*
X141393152Y-94783399D02*
X142059819Y-94783399D01*
X141488390Y-94783399D02*
X141440771Y-94735780D01*
X141440771Y-94735780D02*
X141393152Y-94640542D01*
X141393152Y-94640542D02*
X141393152Y-94497685D01*
X141393152Y-94497685D02*
X141440771Y-94402447D01*
X141440771Y-94402447D02*
X141536009Y-94354828D01*
X141536009Y-94354828D02*
X142059819Y-94354828D01*
X142012200Y-93497685D02*
X142059819Y-93592923D01*
X142059819Y-93592923D02*
X142059819Y-93783399D01*
X142059819Y-93783399D02*
X142012200Y-93878637D01*
X142012200Y-93878637D02*
X141916961Y-93926256D01*
X141916961Y-93926256D02*
X141536009Y-93926256D01*
X141536009Y-93926256D02*
X141440771Y-93878637D01*
X141440771Y-93878637D02*
X141393152Y-93783399D01*
X141393152Y-93783399D02*
X141393152Y-93592923D01*
X141393152Y-93592923D02*
X141440771Y-93497685D01*
X141440771Y-93497685D02*
X141536009Y-93450066D01*
X141536009Y-93450066D02*
X141631247Y-93450066D01*
X141631247Y-93450066D02*
X141726485Y-93926256D01*
X141393152Y-93164351D02*
X141393152Y-92783399D01*
X141059819Y-93021494D02*
X141916961Y-93021494D01*
X141916961Y-93021494D02*
X142012200Y-92973875D01*
X142012200Y-92973875D02*
X142059819Y-92878637D01*
X142059819Y-92878637D02*
X142059819Y-92783399D01*
X174680952Y-99514819D02*
X174680952Y-98514819D01*
X174680952Y-98514819D02*
X175014285Y-99229104D01*
X175014285Y-99229104D02*
X175347618Y-98514819D01*
X175347618Y-98514819D02*
X175347618Y-99514819D01*
X175823809Y-99514819D02*
X175823809Y-98848152D01*
X175823809Y-98514819D02*
X175776190Y-98562438D01*
X175776190Y-98562438D02*
X175823809Y-98610057D01*
X175823809Y-98610057D02*
X175871428Y-98562438D01*
X175871428Y-98562438D02*
X175823809Y-98514819D01*
X175823809Y-98514819D02*
X175823809Y-98610057D01*
X176728570Y-99467200D02*
X176633332Y-99514819D01*
X176633332Y-99514819D02*
X176442856Y-99514819D01*
X176442856Y-99514819D02*
X176347618Y-99467200D01*
X176347618Y-99467200D02*
X176299999Y-99419580D01*
X176299999Y-99419580D02*
X176252380Y-99324342D01*
X176252380Y-99324342D02*
X176252380Y-99038628D01*
X176252380Y-99038628D02*
X176299999Y-98943390D01*
X176299999Y-98943390D02*
X176347618Y-98895771D01*
X176347618Y-98895771D02*
X176442856Y-98848152D01*
X176442856Y-98848152D02*
X176633332Y-98848152D01*
X176633332Y-98848152D02*
X176728570Y-98895771D01*
X177157142Y-99514819D02*
X177157142Y-98848152D01*
X177157142Y-99038628D02*
X177204761Y-98943390D01*
X177204761Y-98943390D02*
X177252380Y-98895771D01*
X177252380Y-98895771D02*
X177347618Y-98848152D01*
X177347618Y-98848152D02*
X177442856Y-98848152D01*
X177919047Y-99514819D02*
X177823809Y-99467200D01*
X177823809Y-99467200D02*
X177776190Y-99419580D01*
X177776190Y-99419580D02*
X177728571Y-99324342D01*
X177728571Y-99324342D02*
X177728571Y-99038628D01*
X177728571Y-99038628D02*
X177776190Y-98943390D01*
X177776190Y-98943390D02*
X177823809Y-98895771D01*
X177823809Y-98895771D02*
X177919047Y-98848152D01*
X177919047Y-98848152D02*
X178061904Y-98848152D01*
X178061904Y-98848152D02*
X178157142Y-98895771D01*
X178157142Y-98895771D02*
X178204761Y-98943390D01*
X178204761Y-98943390D02*
X178252380Y-99038628D01*
X178252380Y-99038628D02*
X178252380Y-99324342D01*
X178252380Y-99324342D02*
X178204761Y-99419580D01*
X178204761Y-99419580D02*
X178157142Y-99467200D01*
X178157142Y-99467200D02*
X178061904Y-99514819D01*
X178061904Y-99514819D02*
X177919047Y-99514819D01*
X179395238Y-99467200D02*
X179538095Y-99514819D01*
X179538095Y-99514819D02*
X179776190Y-99514819D01*
X179776190Y-99514819D02*
X179871428Y-99467200D01*
X179871428Y-99467200D02*
X179919047Y-99419580D01*
X179919047Y-99419580D02*
X179966666Y-99324342D01*
X179966666Y-99324342D02*
X179966666Y-99229104D01*
X179966666Y-99229104D02*
X179919047Y-99133866D01*
X179919047Y-99133866D02*
X179871428Y-99086247D01*
X179871428Y-99086247D02*
X179776190Y-99038628D01*
X179776190Y-99038628D02*
X179585714Y-98991009D01*
X179585714Y-98991009D02*
X179490476Y-98943390D01*
X179490476Y-98943390D02*
X179442857Y-98895771D01*
X179442857Y-98895771D02*
X179395238Y-98800533D01*
X179395238Y-98800533D02*
X179395238Y-98705295D01*
X179395238Y-98705295D02*
X179442857Y-98610057D01*
X179442857Y-98610057D02*
X179490476Y-98562438D01*
X179490476Y-98562438D02*
X179585714Y-98514819D01*
X179585714Y-98514819D02*
X179823809Y-98514819D01*
X179823809Y-98514819D02*
X179966666Y-98562438D01*
X180395238Y-99514819D02*
X180395238Y-98514819D01*
X180395238Y-98514819D02*
X180633333Y-98514819D01*
X180633333Y-98514819D02*
X180776190Y-98562438D01*
X180776190Y-98562438D02*
X180871428Y-98657676D01*
X180871428Y-98657676D02*
X180919047Y-98752914D01*
X180919047Y-98752914D02*
X180966666Y-98943390D01*
X180966666Y-98943390D02*
X180966666Y-99086247D01*
X180966666Y-99086247D02*
X180919047Y-99276723D01*
X180919047Y-99276723D02*
X180871428Y-99371961D01*
X180871428Y-99371961D02*
X180776190Y-99467200D01*
X180776190Y-99467200D02*
X180633333Y-99514819D01*
X180633333Y-99514819D02*
X180395238Y-99514819D01*
X152716033Y-102143333D02*
X152016033Y-102143333D01*
X152016033Y-102143333D02*
X152516033Y-101910000D01*
X152516033Y-101910000D02*
X152016033Y-101676666D01*
X152016033Y-101676666D02*
X152716033Y-101676666D01*
X152716033Y-101343333D02*
X152016033Y-101343333D01*
X152716033Y-101010000D02*
X152016033Y-101010000D01*
X152016033Y-101010000D02*
X152516033Y-100776667D01*
X152516033Y-100776667D02*
X152016033Y-100543333D01*
X152016033Y-100543333D02*
X152716033Y-100543333D01*
X152016033Y-100276667D02*
X152716033Y-99810000D01*
X152016033Y-99810000D02*
X152716033Y-100276667D01*
X152716033Y-99143333D02*
X152382700Y-99376666D01*
X152716033Y-99543333D02*
X152016033Y-99543333D01*
X152016033Y-99543333D02*
X152016033Y-99276666D01*
X152016033Y-99276666D02*
X152049366Y-99210000D01*
X152049366Y-99210000D02*
X152082700Y-99176666D01*
X152082700Y-99176666D02*
X152149366Y-99143333D01*
X152149366Y-99143333D02*
X152249366Y-99143333D01*
X152249366Y-99143333D02*
X152316033Y-99176666D01*
X152316033Y-99176666D02*
X152349366Y-99210000D01*
X152349366Y-99210000D02*
X152382700Y-99276666D01*
X152382700Y-99276666D02*
X152382700Y-99543333D01*
X152016033Y-98943333D02*
X152016033Y-98543333D01*
X152716033Y-98743333D02*
X152016033Y-98743333D01*
X152716033Y-97943333D02*
X152716033Y-98343333D01*
X152716033Y-98143333D02*
X152016033Y-98143333D01*
X152016033Y-98143333D02*
X152116033Y-98210000D01*
X152116033Y-98210000D02*
X152182700Y-98276667D01*
X152182700Y-98276667D02*
X152216033Y-98343333D01*
X152016033Y-97510000D02*
X152016033Y-97443333D01*
X152016033Y-97443333D02*
X152049366Y-97376666D01*
X152049366Y-97376666D02*
X152082700Y-97343333D01*
X152082700Y-97343333D02*
X152149366Y-97310000D01*
X152149366Y-97310000D02*
X152282700Y-97276666D01*
X152282700Y-97276666D02*
X152449366Y-97276666D01*
X152449366Y-97276666D02*
X152582700Y-97310000D01*
X152582700Y-97310000D02*
X152649366Y-97343333D01*
X152649366Y-97343333D02*
X152682700Y-97376666D01*
X152682700Y-97376666D02*
X152716033Y-97443333D01*
X152716033Y-97443333D02*
X152716033Y-97510000D01*
X152716033Y-97510000D02*
X152682700Y-97576666D01*
X152682700Y-97576666D02*
X152649366Y-97610000D01*
X152649366Y-97610000D02*
X152582700Y-97643333D01*
X152582700Y-97643333D02*
X152449366Y-97676666D01*
X152449366Y-97676666D02*
X152282700Y-97676666D01*
X152282700Y-97676666D02*
X152149366Y-97643333D01*
X152149366Y-97643333D02*
X152082700Y-97610000D01*
X152082700Y-97610000D02*
X152049366Y-97576666D01*
X152049366Y-97576666D02*
X152016033Y-97510000D01*
X152016033Y-96676666D02*
X152016033Y-96809999D01*
X152016033Y-96809999D02*
X152049366Y-96876666D01*
X152049366Y-96876666D02*
X152082700Y-96909999D01*
X152082700Y-96909999D02*
X152182700Y-96976666D01*
X152182700Y-96976666D02*
X152316033Y-97009999D01*
X152316033Y-97009999D02*
X152582700Y-97009999D01*
X152582700Y-97009999D02*
X152649366Y-96976666D01*
X152649366Y-96976666D02*
X152682700Y-96943333D01*
X152682700Y-96943333D02*
X152716033Y-96876666D01*
X152716033Y-96876666D02*
X152716033Y-96743333D01*
X152716033Y-96743333D02*
X152682700Y-96676666D01*
X152682700Y-96676666D02*
X152649366Y-96643333D01*
X152649366Y-96643333D02*
X152582700Y-96609999D01*
X152582700Y-96609999D02*
X152416033Y-96609999D01*
X152416033Y-96609999D02*
X152349366Y-96643333D01*
X152349366Y-96643333D02*
X152316033Y-96676666D01*
X152316033Y-96676666D02*
X152282700Y-96743333D01*
X152282700Y-96743333D02*
X152282700Y-96876666D01*
X152282700Y-96876666D02*
X152316033Y-96943333D01*
X152316033Y-96943333D02*
X152349366Y-96976666D01*
X152349366Y-96976666D02*
X152416033Y-97009999D01*
X152082700Y-96343332D02*
X152049366Y-96309999D01*
X152049366Y-96309999D02*
X152016033Y-96243332D01*
X152016033Y-96243332D02*
X152016033Y-96076666D01*
X152016033Y-96076666D02*
X152049366Y-96009999D01*
X152049366Y-96009999D02*
X152082700Y-95976666D01*
X152082700Y-95976666D02*
X152149366Y-95943332D01*
X152149366Y-95943332D02*
X152216033Y-95943332D01*
X152216033Y-95943332D02*
X152316033Y-95976666D01*
X152316033Y-95976666D02*
X152716033Y-96376666D01*
X152716033Y-96376666D02*
X152716033Y-95943332D01*
X131894676Y-101004019D02*
X131894676Y-101813542D01*
X131894676Y-101813542D02*
X131942295Y-101908780D01*
X131942295Y-101908780D02*
X131989914Y-101956400D01*
X131989914Y-101956400D02*
X132085152Y-102004019D01*
X132085152Y-102004019D02*
X132275628Y-102004019D01*
X132275628Y-102004019D02*
X132370866Y-101956400D01*
X132370866Y-101956400D02*
X132418485Y-101908780D01*
X132418485Y-101908780D02*
X132466104Y-101813542D01*
X132466104Y-101813542D02*
X132466104Y-101004019D01*
X132894676Y-101956400D02*
X133037533Y-102004019D01*
X133037533Y-102004019D02*
X133275628Y-102004019D01*
X133275628Y-102004019D02*
X133370866Y-101956400D01*
X133370866Y-101956400D02*
X133418485Y-101908780D01*
X133418485Y-101908780D02*
X133466104Y-101813542D01*
X133466104Y-101813542D02*
X133466104Y-101718304D01*
X133466104Y-101718304D02*
X133418485Y-101623066D01*
X133418485Y-101623066D02*
X133370866Y-101575447D01*
X133370866Y-101575447D02*
X133275628Y-101527828D01*
X133275628Y-101527828D02*
X133085152Y-101480209D01*
X133085152Y-101480209D02*
X132989914Y-101432590D01*
X132989914Y-101432590D02*
X132942295Y-101384971D01*
X132942295Y-101384971D02*
X132894676Y-101289733D01*
X132894676Y-101289733D02*
X132894676Y-101194495D01*
X132894676Y-101194495D02*
X132942295Y-101099257D01*
X132942295Y-101099257D02*
X132989914Y-101051638D01*
X132989914Y-101051638D02*
X133085152Y-101004019D01*
X133085152Y-101004019D02*
X133323247Y-101004019D01*
X133323247Y-101004019D02*
X133466104Y-101051638D01*
X134228009Y-101480209D02*
X134370866Y-101527828D01*
X134370866Y-101527828D02*
X134418485Y-101575447D01*
X134418485Y-101575447D02*
X134466104Y-101670685D01*
X134466104Y-101670685D02*
X134466104Y-101813542D01*
X134466104Y-101813542D02*
X134418485Y-101908780D01*
X134418485Y-101908780D02*
X134370866Y-101956400D01*
X134370866Y-101956400D02*
X134275628Y-102004019D01*
X134275628Y-102004019D02*
X133894676Y-102004019D01*
X133894676Y-102004019D02*
X133894676Y-101004019D01*
X133894676Y-101004019D02*
X134228009Y-101004019D01*
X134228009Y-101004019D02*
X134323247Y-101051638D01*
X134323247Y-101051638D02*
X134370866Y-101099257D01*
X134370866Y-101099257D02*
X134418485Y-101194495D01*
X134418485Y-101194495D02*
X134418485Y-101289733D01*
X134418485Y-101289733D02*
X134370866Y-101384971D01*
X134370866Y-101384971D02*
X134323247Y-101432590D01*
X134323247Y-101432590D02*
X134228009Y-101480209D01*
X134228009Y-101480209D02*
X133894676Y-101480209D01*
X135656581Y-102004019D02*
X135656581Y-101004019D01*
X135656581Y-101480209D02*
X136228009Y-101480209D01*
X136228009Y-102004019D02*
X136228009Y-101004019D01*
X136847057Y-102004019D02*
X136751819Y-101956400D01*
X136751819Y-101956400D02*
X136704200Y-101908780D01*
X136704200Y-101908780D02*
X136656581Y-101813542D01*
X136656581Y-101813542D02*
X136656581Y-101527828D01*
X136656581Y-101527828D02*
X136704200Y-101432590D01*
X136704200Y-101432590D02*
X136751819Y-101384971D01*
X136751819Y-101384971D02*
X136847057Y-101337352D01*
X136847057Y-101337352D02*
X136989914Y-101337352D01*
X136989914Y-101337352D02*
X137085152Y-101384971D01*
X137085152Y-101384971D02*
X137132771Y-101432590D01*
X137132771Y-101432590D02*
X137180390Y-101527828D01*
X137180390Y-101527828D02*
X137180390Y-101813542D01*
X137180390Y-101813542D02*
X137132771Y-101908780D01*
X137132771Y-101908780D02*
X137085152Y-101956400D01*
X137085152Y-101956400D02*
X136989914Y-102004019D01*
X136989914Y-102004019D02*
X136847057Y-102004019D01*
X137561343Y-101956400D02*
X137656581Y-102004019D01*
X137656581Y-102004019D02*
X137847057Y-102004019D01*
X137847057Y-102004019D02*
X137942295Y-101956400D01*
X137942295Y-101956400D02*
X137989914Y-101861161D01*
X137989914Y-101861161D02*
X137989914Y-101813542D01*
X137989914Y-101813542D02*
X137942295Y-101718304D01*
X137942295Y-101718304D02*
X137847057Y-101670685D01*
X137847057Y-101670685D02*
X137704200Y-101670685D01*
X137704200Y-101670685D02*
X137608962Y-101623066D01*
X137608962Y-101623066D02*
X137561343Y-101527828D01*
X137561343Y-101527828D02*
X137561343Y-101480209D01*
X137561343Y-101480209D02*
X137608962Y-101384971D01*
X137608962Y-101384971D02*
X137704200Y-101337352D01*
X137704200Y-101337352D02*
X137847057Y-101337352D01*
X137847057Y-101337352D02*
X137942295Y-101384971D01*
X138275629Y-101337352D02*
X138656581Y-101337352D01*
X138418486Y-101004019D02*
X138418486Y-101861161D01*
X138418486Y-101861161D02*
X138466105Y-101956400D01*
X138466105Y-101956400D02*
X138561343Y-102004019D01*
X138561343Y-102004019D02*
X138656581Y-102004019D01*
X126454819Y-100321904D02*
X127264342Y-100321904D01*
X127264342Y-100321904D02*
X127359580Y-100274285D01*
X127359580Y-100274285D02*
X127407200Y-100226666D01*
X127407200Y-100226666D02*
X127454819Y-100131428D01*
X127454819Y-100131428D02*
X127454819Y-99940952D01*
X127454819Y-99940952D02*
X127407200Y-99845714D01*
X127407200Y-99845714D02*
X127359580Y-99798095D01*
X127359580Y-99798095D02*
X127264342Y-99750476D01*
X127264342Y-99750476D02*
X126454819Y-99750476D01*
X127407200Y-99321904D02*
X127454819Y-99179047D01*
X127454819Y-99179047D02*
X127454819Y-98940952D01*
X127454819Y-98940952D02*
X127407200Y-98845714D01*
X127407200Y-98845714D02*
X127359580Y-98798095D01*
X127359580Y-98798095D02*
X127264342Y-98750476D01*
X127264342Y-98750476D02*
X127169104Y-98750476D01*
X127169104Y-98750476D02*
X127073866Y-98798095D01*
X127073866Y-98798095D02*
X127026247Y-98845714D01*
X127026247Y-98845714D02*
X126978628Y-98940952D01*
X126978628Y-98940952D02*
X126931009Y-99131428D01*
X126931009Y-99131428D02*
X126883390Y-99226666D01*
X126883390Y-99226666D02*
X126835771Y-99274285D01*
X126835771Y-99274285D02*
X126740533Y-99321904D01*
X126740533Y-99321904D02*
X126645295Y-99321904D01*
X126645295Y-99321904D02*
X126550057Y-99274285D01*
X126550057Y-99274285D02*
X126502438Y-99226666D01*
X126502438Y-99226666D02*
X126454819Y-99131428D01*
X126454819Y-99131428D02*
X126454819Y-98893333D01*
X126454819Y-98893333D02*
X126502438Y-98750476D01*
X126931009Y-97988571D02*
X126978628Y-97845714D01*
X126978628Y-97845714D02*
X127026247Y-97798095D01*
X127026247Y-97798095D02*
X127121485Y-97750476D01*
X127121485Y-97750476D02*
X127264342Y-97750476D01*
X127264342Y-97750476D02*
X127359580Y-97798095D01*
X127359580Y-97798095D02*
X127407200Y-97845714D01*
X127407200Y-97845714D02*
X127454819Y-97940952D01*
X127454819Y-97940952D02*
X127454819Y-98321904D01*
X127454819Y-98321904D02*
X126454819Y-98321904D01*
X126454819Y-98321904D02*
X126454819Y-97988571D01*
X126454819Y-97988571D02*
X126502438Y-97893333D01*
X126502438Y-97893333D02*
X126550057Y-97845714D01*
X126550057Y-97845714D02*
X126645295Y-97798095D01*
X126645295Y-97798095D02*
X126740533Y-97798095D01*
X126740533Y-97798095D02*
X126835771Y-97845714D01*
X126835771Y-97845714D02*
X126883390Y-97893333D01*
X126883390Y-97893333D02*
X126931009Y-97988571D01*
X126931009Y-97988571D02*
X126931009Y-98321904D01*
X151446033Y-100263333D02*
X150746033Y-100263333D01*
X150746033Y-100263333D02*
X150746033Y-100096666D01*
X150746033Y-100096666D02*
X150779366Y-99996666D01*
X150779366Y-99996666D02*
X150846033Y-99930000D01*
X150846033Y-99930000D02*
X150912700Y-99896666D01*
X150912700Y-99896666D02*
X151046033Y-99863333D01*
X151046033Y-99863333D02*
X151146033Y-99863333D01*
X151146033Y-99863333D02*
X151279366Y-99896666D01*
X151279366Y-99896666D02*
X151346033Y-99930000D01*
X151346033Y-99930000D02*
X151412700Y-99996666D01*
X151412700Y-99996666D02*
X151446033Y-100096666D01*
X151446033Y-100096666D02*
X151446033Y-100263333D01*
X150746033Y-99663333D02*
X151446033Y-99430000D01*
X151446033Y-99430000D02*
X150746033Y-99196666D01*
X150746033Y-98763333D02*
X151246033Y-98763333D01*
X151246033Y-98763333D02*
X151346033Y-98796666D01*
X151346033Y-98796666D02*
X151412700Y-98863333D01*
X151412700Y-98863333D02*
X151446033Y-98963333D01*
X151446033Y-98963333D02*
X151446033Y-99030000D01*
X150746033Y-98130000D02*
X150746033Y-98263333D01*
X150746033Y-98263333D02*
X150779366Y-98330000D01*
X150779366Y-98330000D02*
X150812700Y-98363333D01*
X150812700Y-98363333D02*
X150912700Y-98430000D01*
X150912700Y-98430000D02*
X151046033Y-98463333D01*
X151046033Y-98463333D02*
X151312700Y-98463333D01*
X151312700Y-98463333D02*
X151379366Y-98430000D01*
X151379366Y-98430000D02*
X151412700Y-98396667D01*
X151412700Y-98396667D02*
X151446033Y-98330000D01*
X151446033Y-98330000D02*
X151446033Y-98196667D01*
X151446033Y-98196667D02*
X151412700Y-98130000D01*
X151412700Y-98130000D02*
X151379366Y-98096667D01*
X151379366Y-98096667D02*
X151312700Y-98063333D01*
X151312700Y-98063333D02*
X151146033Y-98063333D01*
X151146033Y-98063333D02*
X151079366Y-98096667D01*
X151079366Y-98096667D02*
X151046033Y-98130000D01*
X151046033Y-98130000D02*
X151012700Y-98196667D01*
X151012700Y-98196667D02*
X151012700Y-98330000D01*
X151012700Y-98330000D02*
X151046033Y-98396667D01*
X151046033Y-98396667D02*
X151079366Y-98430000D01*
X151079366Y-98430000D02*
X151146033Y-98463333D01*
X151246033Y-97796666D02*
X151246033Y-97463333D01*
X151446033Y-97863333D02*
X150746033Y-97630000D01*
X150746033Y-97630000D02*
X151446033Y-97396666D01*
X162234819Y-115061904D02*
X163044342Y-115061904D01*
X163044342Y-115061904D02*
X163139580Y-115014285D01*
X163139580Y-115014285D02*
X163187200Y-114966666D01*
X163187200Y-114966666D02*
X163234819Y-114871428D01*
X163234819Y-114871428D02*
X163234819Y-114680952D01*
X163234819Y-114680952D02*
X163187200Y-114585714D01*
X163187200Y-114585714D02*
X163139580Y-114538095D01*
X163139580Y-114538095D02*
X163044342Y-114490476D01*
X163044342Y-114490476D02*
X162234819Y-114490476D01*
X162330057Y-114061904D02*
X162282438Y-114014285D01*
X162282438Y-114014285D02*
X162234819Y-113919047D01*
X162234819Y-113919047D02*
X162234819Y-113680952D01*
X162234819Y-113680952D02*
X162282438Y-113585714D01*
X162282438Y-113585714D02*
X162330057Y-113538095D01*
X162330057Y-113538095D02*
X162425295Y-113490476D01*
X162425295Y-113490476D02*
X162520533Y-113490476D01*
X162520533Y-113490476D02*
X162663390Y-113538095D01*
X162663390Y-113538095D02*
X163234819Y-114109523D01*
X163234819Y-114109523D02*
X163234819Y-113490476D01*
X165619819Y-120121904D02*
X166429342Y-120121904D01*
X166429342Y-120121904D02*
X166524580Y-120074285D01*
X166524580Y-120074285D02*
X166572200Y-120026666D01*
X166572200Y-120026666D02*
X166619819Y-119931428D01*
X166619819Y-119931428D02*
X166619819Y-119740952D01*
X166619819Y-119740952D02*
X166572200Y-119645714D01*
X166572200Y-119645714D02*
X166524580Y-119598095D01*
X166524580Y-119598095D02*
X166429342Y-119550476D01*
X166429342Y-119550476D02*
X165619819Y-119550476D01*
X166619819Y-118550476D02*
X166619819Y-119121904D01*
X166619819Y-118836190D02*
X165619819Y-118836190D01*
X165619819Y-118836190D02*
X165762676Y-118931428D01*
X165762676Y-118931428D02*
X165857914Y-119026666D01*
X165857914Y-119026666D02*
X165905533Y-119121904D01*
X131746666Y-80504819D02*
X131746666Y-81219104D01*
X131746666Y-81219104D02*
X131699047Y-81361961D01*
X131699047Y-81361961D02*
X131603809Y-81457200D01*
X131603809Y-81457200D02*
X131460952Y-81504819D01*
X131460952Y-81504819D02*
X131365714Y-81504819D01*
X132651428Y-80504819D02*
X132460952Y-80504819D01*
X132460952Y-80504819D02*
X132365714Y-80552438D01*
X132365714Y-80552438D02*
X132318095Y-80600057D01*
X132318095Y-80600057D02*
X132222857Y-80742914D01*
X132222857Y-80742914D02*
X132175238Y-80933390D01*
X132175238Y-80933390D02*
X132175238Y-81314342D01*
X132175238Y-81314342D02*
X132222857Y-81409580D01*
X132222857Y-81409580D02*
X132270476Y-81457200D01*
X132270476Y-81457200D02*
X132365714Y-81504819D01*
X132365714Y-81504819D02*
X132556190Y-81504819D01*
X132556190Y-81504819D02*
X132651428Y-81457200D01*
X132651428Y-81457200D02*
X132699047Y-81409580D01*
X132699047Y-81409580D02*
X132746666Y-81314342D01*
X132746666Y-81314342D02*
X132746666Y-81076247D01*
X132746666Y-81076247D02*
X132699047Y-80981009D01*
X132699047Y-80981009D02*
X132651428Y-80933390D01*
X132651428Y-80933390D02*
X132556190Y-80885771D01*
X132556190Y-80885771D02*
X132365714Y-80885771D01*
X132365714Y-80885771D02*
X132270476Y-80933390D01*
X132270476Y-80933390D02*
X132222857Y-80981009D01*
X132222857Y-80981009D02*
X132175238Y-81076247D01*
X124126666Y-80504819D02*
X124126666Y-81219104D01*
X124126666Y-81219104D02*
X124079047Y-81361961D01*
X124079047Y-81361961D02*
X123983809Y-81457200D01*
X123983809Y-81457200D02*
X123840952Y-81504819D01*
X123840952Y-81504819D02*
X123745714Y-81504819D01*
X125079047Y-80504819D02*
X124602857Y-80504819D01*
X124602857Y-80504819D02*
X124555238Y-80981009D01*
X124555238Y-80981009D02*
X124602857Y-80933390D01*
X124602857Y-80933390D02*
X124698095Y-80885771D01*
X124698095Y-80885771D02*
X124936190Y-80885771D01*
X124936190Y-80885771D02*
X125031428Y-80933390D01*
X125031428Y-80933390D02*
X125079047Y-80981009D01*
X125079047Y-80981009D02*
X125126666Y-81076247D01*
X125126666Y-81076247D02*
X125126666Y-81314342D01*
X125126666Y-81314342D02*
X125079047Y-81409580D01*
X125079047Y-81409580D02*
X125031428Y-81457200D01*
X125031428Y-81457200D02*
X124936190Y-81504819D01*
X124936190Y-81504819D02*
X124698095Y-81504819D01*
X124698095Y-81504819D02*
X124602857Y-81457200D01*
X124602857Y-81457200D02*
X124555238Y-81409580D01*
X182546666Y-80504819D02*
X182546666Y-81219104D01*
X182546666Y-81219104D02*
X182499047Y-81361961D01*
X182499047Y-81361961D02*
X182403809Y-81457200D01*
X182403809Y-81457200D02*
X182260952Y-81504819D01*
X182260952Y-81504819D02*
X182165714Y-81504819D01*
X183451428Y-80838152D02*
X183451428Y-81504819D01*
X183213333Y-80457200D02*
X182975238Y-81171485D01*
X182975238Y-81171485D02*
X183594285Y-81171485D01*
X174926666Y-80504819D02*
X174926666Y-81219104D01*
X174926666Y-81219104D02*
X174879047Y-81361961D01*
X174879047Y-81361961D02*
X174783809Y-81457200D01*
X174783809Y-81457200D02*
X174640952Y-81504819D01*
X174640952Y-81504819D02*
X174545714Y-81504819D01*
X175307619Y-80504819D02*
X175926666Y-80504819D01*
X175926666Y-80504819D02*
X175593333Y-80885771D01*
X175593333Y-80885771D02*
X175736190Y-80885771D01*
X175736190Y-80885771D02*
X175831428Y-80933390D01*
X175831428Y-80933390D02*
X175879047Y-80981009D01*
X175879047Y-80981009D02*
X175926666Y-81076247D01*
X175926666Y-81076247D02*
X175926666Y-81314342D01*
X175926666Y-81314342D02*
X175879047Y-81409580D01*
X175879047Y-81409580D02*
X175831428Y-81457200D01*
X175831428Y-81457200D02*
X175736190Y-81504819D01*
X175736190Y-81504819D02*
X175450476Y-81504819D01*
X175450476Y-81504819D02*
X175355238Y-81457200D01*
X175355238Y-81457200D02*
X175307619Y-81409580D01*
X121586666Y-110984819D02*
X121586666Y-111699104D01*
X121586666Y-111699104D02*
X121539047Y-111841961D01*
X121539047Y-111841961D02*
X121443809Y-111937200D01*
X121443809Y-111937200D02*
X121300952Y-111984819D01*
X121300952Y-111984819D02*
X121205714Y-111984819D01*
X122015238Y-111080057D02*
X122062857Y-111032438D01*
X122062857Y-111032438D02*
X122158095Y-110984819D01*
X122158095Y-110984819D02*
X122396190Y-110984819D01*
X122396190Y-110984819D02*
X122491428Y-111032438D01*
X122491428Y-111032438D02*
X122539047Y-111080057D01*
X122539047Y-111080057D02*
X122586666Y-111175295D01*
X122586666Y-111175295D02*
X122586666Y-111270533D01*
X122586666Y-111270533D02*
X122539047Y-111413390D01*
X122539047Y-111413390D02*
X121967619Y-111984819D01*
X121967619Y-111984819D02*
X122586666Y-111984819D01*
X134286666Y-110984819D02*
X134286666Y-111699104D01*
X134286666Y-111699104D02*
X134239047Y-111841961D01*
X134239047Y-111841961D02*
X134143809Y-111937200D01*
X134143809Y-111937200D02*
X134000952Y-111984819D01*
X134000952Y-111984819D02*
X133905714Y-111984819D01*
X135286666Y-111984819D02*
X134715238Y-111984819D01*
X135000952Y-111984819D02*
X135000952Y-110984819D01*
X135000952Y-110984819D02*
X134905714Y-111127676D01*
X134905714Y-111127676D02*
X134810476Y-111222914D01*
X134810476Y-111222914D02*
X134715238Y-111270533D01*
D12*
%TO.C,U4*%
X138370000Y-85150000D02*
X141030000Y-85150000D01*
X138370000Y-72390000D02*
X138370000Y-85150000D01*
X141030000Y-69790000D02*
X141030000Y-71120000D01*
X141030000Y-72390000D02*
X141030000Y-85150000D01*
X138370000Y-72390000D02*
X141030000Y-72390000D01*
X139700000Y-69790000D02*
X141030000Y-69790000D01*
D10*
%TO.C,U3*%
X121920000Y-95250000D02*
X123190000Y-95250000D01*
X121920000Y-102870000D02*
X121920000Y-95250000D01*
X123190000Y-90170000D02*
X184150000Y-90170000D01*
X123190000Y-102870000D02*
X121920000Y-102870000D01*
X123190000Y-107950000D02*
X123190000Y-90170000D01*
X128270000Y-95250000D02*
X123190000Y-95250000D01*
X128270000Y-102870000D02*
X123190000Y-102870000D01*
X128270000Y-102870000D02*
X128270000Y-95250000D01*
X129489200Y-102359200D02*
X132029200Y-102359200D01*
X129489200Y-102359200D02*
X142189200Y-102359200D01*
X129489200Y-104899200D02*
X129489200Y-102359200D01*
X132029200Y-102359200D02*
X132029200Y-104899200D01*
X136420000Y-92708400D02*
X136420000Y-92958400D01*
X136420000Y-92958400D02*
X136420000Y-98958400D01*
X136420000Y-98958400D02*
X140420000Y-98958400D01*
X140420000Y-92708400D02*
X136420000Y-92708400D01*
X140420000Y-98958400D02*
X140420000Y-92708400D01*
X142189200Y-102359200D02*
X142189200Y-104899200D01*
X142189200Y-104899200D02*
X129489200Y-104899200D01*
X146050000Y-92710000D02*
X146050000Y-105410000D01*
X146050000Y-105410000D02*
X158750000Y-105410000D01*
X158750000Y-92710000D02*
X146050000Y-92710000D01*
X158750000Y-105410000D02*
X158750000Y-92710000D01*
X163830000Y-97790000D02*
X167640000Y-97790000D01*
X163830000Y-100330000D02*
X163830000Y-97790000D01*
X167640000Y-97790000D02*
X167640000Y-100330000D01*
X167640000Y-100330000D02*
X163830000Y-100330000D01*
X171450000Y-92710000D02*
X171450000Y-105410000D01*
X171450000Y-105410000D02*
X184150000Y-105410000D01*
X182880000Y-93980000D02*
X182880000Y-104140000D01*
X182880000Y-104140000D02*
X184150000Y-104140000D01*
X184150000Y-90170000D02*
X184150000Y-107950000D01*
X184150000Y-92710000D02*
X171450000Y-92710000D01*
X184150000Y-93980000D02*
X182880000Y-93980000D01*
X184150000Y-107950000D02*
X123190000Y-107950000D01*
X166633026Y-99060000D02*
G75*
G03*
X166633026Y-99060000I-898026J0D01*
G01*
D13*
X154581000Y-98372000D02*
X154327000Y-98626000D01*
X154073000Y-98245000D01*
X154327000Y-97991000D01*
X154581000Y-98372000D01*
G36*
X154581000Y-98372000D02*
G01*
X154327000Y-98626000D01*
X154073000Y-98245000D01*
X154327000Y-97991000D01*
X154581000Y-98372000D01*
G37*
X154962000Y-98880000D02*
X154708000Y-99134000D01*
X154454000Y-98753000D01*
X154708000Y-98499000D01*
X154962000Y-98880000D01*
G36*
X154962000Y-98880000D02*
G01*
X154708000Y-99134000D01*
X154454000Y-98753000D01*
X154708000Y-98499000D01*
X154962000Y-98880000D01*
G37*
X155343000Y-98499000D02*
X155089000Y-98753000D01*
X154835000Y-98372000D01*
X155089000Y-98118000D01*
X155343000Y-98499000D01*
G36*
X155343000Y-98499000D02*
G01*
X155089000Y-98753000D01*
X154835000Y-98372000D01*
X155089000Y-98118000D01*
X155343000Y-98499000D01*
G37*
X155343000Y-99388000D02*
X155089000Y-99642000D01*
X154835000Y-99261000D01*
X155089000Y-99007000D01*
X155343000Y-99388000D01*
G36*
X155343000Y-99388000D02*
G01*
X155089000Y-99642000D01*
X154835000Y-99261000D01*
X155089000Y-99007000D01*
X155343000Y-99388000D01*
G37*
X155724000Y-99007000D02*
X155470000Y-99261000D01*
X155216000Y-98880000D01*
X155470000Y-98626000D01*
X155724000Y-99007000D01*
G36*
X155724000Y-99007000D02*
G01*
X155470000Y-99261000D01*
X155216000Y-98880000D01*
X155470000Y-98626000D01*
X155724000Y-99007000D01*
G37*
X156105000Y-99515000D02*
X155851000Y-99769000D01*
X155597000Y-99388000D01*
X155851000Y-99134000D01*
X156105000Y-99515000D01*
G36*
X156105000Y-99515000D02*
G01*
X155851000Y-99769000D01*
X155597000Y-99388000D01*
X155851000Y-99134000D01*
X156105000Y-99515000D01*
G37*
X156486000Y-99134000D02*
X156232000Y-99388000D01*
X155978000Y-99007000D01*
X156232000Y-98753000D01*
X156486000Y-99134000D01*
G36*
X156486000Y-99134000D02*
G01*
X156232000Y-99388000D01*
X155978000Y-99007000D01*
X156232000Y-98753000D01*
X156486000Y-99134000D01*
G37*
X156867000Y-98753000D02*
X156613000Y-99007000D01*
X156359000Y-98626000D01*
X156613000Y-98372000D01*
X156867000Y-98753000D01*
G36*
X156867000Y-98753000D02*
G01*
X156613000Y-99007000D01*
X156359000Y-98626000D01*
X156613000Y-98372000D01*
X156867000Y-98753000D01*
G37*
D12*
%TO.C,U2*%
X161340000Y-115630000D02*
X160010000Y-115630000D01*
X158740000Y-112970000D02*
X138360000Y-112970000D01*
X138360000Y-112970000D02*
X138360000Y-115630000D01*
X158740000Y-112970000D02*
X158740000Y-115630000D01*
X158740000Y-115630000D02*
X138360000Y-115630000D01*
X161340000Y-114300000D02*
X161340000Y-115630000D01*
%TO.C,U1*%
X169614520Y-125070000D02*
X169614520Y-116440000D01*
X169260235Y-125070000D02*
X169260235Y-116440000D01*
X168315475Y-125070000D02*
X168315475Y-116440000D01*
X167605000Y-116440000D02*
X182965000Y-116440000D01*
X168669760Y-125070000D02*
X168669760Y-116440000D01*
X177825000Y-125070000D02*
X177825000Y-116440000D01*
X174375000Y-116440000D02*
X174375000Y-116030000D01*
X182965000Y-125070000D02*
X182965000Y-116440000D01*
X167605000Y-125070000D02*
X167605000Y-116440000D01*
X167605000Y-113870000D02*
X168935000Y-113870000D01*
X168197380Y-125070000D02*
X168197380Y-116440000D01*
X175285000Y-125070000D02*
X175285000Y-116440000D01*
X170205000Y-125070000D02*
X170205000Y-116440000D01*
X176195000Y-116440000D02*
X176195000Y-116030000D01*
X169378330Y-125070000D02*
X169378330Y-116440000D01*
X168787855Y-125070000D02*
X168787855Y-116440000D01*
X171115000Y-116440000D02*
X171115000Y-116030000D01*
X169024045Y-125070000D02*
X169024045Y-116440000D01*
X173655000Y-116440000D02*
X173655000Y-116030000D01*
X169496425Y-125070000D02*
X169496425Y-116440000D01*
X167961190Y-125070000D02*
X167961190Y-116440000D01*
X168905950Y-125070000D02*
X168905950Y-116440000D01*
X181275000Y-116440000D02*
X181275000Y-116030000D01*
X169142140Y-125070000D02*
X169142140Y-116440000D01*
X168575000Y-116440000D02*
X168575000Y-116090000D01*
X178735000Y-116440000D02*
X178735000Y-116030000D01*
X169732615Y-125070000D02*
X169732615Y-116440000D01*
X170086900Y-125070000D02*
X170086900Y-116440000D01*
X167605000Y-125070000D02*
X182965000Y-125070000D01*
X167725000Y-125070000D02*
X167725000Y-116440000D01*
X171835000Y-116440000D02*
X171835000Y-116030000D01*
X180365000Y-125070000D02*
X180365000Y-116440000D01*
X167843095Y-125070000D02*
X167843095Y-116440000D01*
X181995000Y-116440000D02*
X181995000Y-116030000D01*
X169968805Y-125070000D02*
X169968805Y-116440000D01*
X168079285Y-125070000D02*
X168079285Y-116440000D01*
X169850710Y-125070000D02*
X169850710Y-116440000D01*
X168433570Y-125070000D02*
X168433570Y-116440000D01*
X168551665Y-125070000D02*
X168551665Y-116440000D01*
X167605000Y-114980000D02*
X167605000Y-113870000D01*
X172745000Y-125070000D02*
X172745000Y-116440000D01*
X179455000Y-116440000D02*
X179455000Y-116030000D01*
X176915000Y-116440000D02*
X176915000Y-116030000D01*
X169295000Y-116440000D02*
X169295000Y-116090000D01*
%TO.C,J6*%
X130750000Y-85030000D02*
X130750000Y-85150000D01*
X130750000Y-85150000D02*
X133410000Y-85150000D01*
X133410000Y-85030000D02*
X133410000Y-85150000D01*
X133410000Y-82490000D02*
X133410000Y-83820000D01*
X132080000Y-82490000D02*
X133410000Y-82490000D01*
%TO.C,J5*%
X123130000Y-85030000D02*
X123130000Y-85150000D01*
X123130000Y-85150000D02*
X125790000Y-85150000D01*
X125790000Y-85030000D02*
X125790000Y-85150000D01*
X125790000Y-82490000D02*
X125790000Y-83820000D01*
X124460000Y-82490000D02*
X125790000Y-82490000D01*
%TO.C,J4*%
X181550000Y-85030000D02*
X181550000Y-85150000D01*
X181550000Y-85150000D02*
X184210000Y-85150000D01*
X184210000Y-85030000D02*
X184210000Y-85150000D01*
X184210000Y-82490000D02*
X184210000Y-83820000D01*
X182880000Y-82490000D02*
X184210000Y-82490000D01*
%TO.C,J3*%
X173930000Y-85030000D02*
X173930000Y-85150000D01*
X173930000Y-85150000D02*
X176590000Y-85150000D01*
X176590000Y-85030000D02*
X176590000Y-85150000D01*
X176590000Y-82490000D02*
X176590000Y-83820000D01*
X175260000Y-82490000D02*
X176590000Y-82490000D01*
%TO.C,J2*%
X123130000Y-115510000D02*
X123130000Y-115630000D01*
X123130000Y-115630000D02*
X125790000Y-115630000D01*
X125790000Y-115510000D02*
X125790000Y-115630000D01*
X125790000Y-112970000D02*
X125790000Y-114300000D01*
X124460000Y-112970000D02*
X125790000Y-112970000D01*
%TO.C,J1*%
X133290000Y-115510000D02*
X133290000Y-115630000D01*
X133290000Y-115630000D02*
X135950000Y-115630000D01*
X135950000Y-115510000D02*
X135950000Y-115630000D01*
X135950000Y-112970000D02*
X135950000Y-114300000D01*
X134620000Y-112970000D02*
X135950000Y-112970000D01*
%TD*%
M02*
