M48
; DRILL file {KiCad 7.0.7} date Wed Nov  5 23:00:48 2025
; FORMAT={-:-/ absolute / inch / decimal}
; #@! TF.CreationDate,2025-11-05T23:00:48-06:00
; #@! TF.GenerationSoftware,Kicad,Pcbnew,7.0.7
; #@! TF.FileFunction,Plated,1,2,PTH
FMAT,2
INCH
; #@! TA.AperFunction,Plated,PTH,ComponentDrill
T1C0.0315
; #@! TA.AperFunction,Plated,PTH,ComponentDrill
T2C0.0394
; #@! TA.AperFunction,Plated,PTH,ComponentDrill
T3C0.0433
%
G90
G05
T1
X4.9287Y-3.85
X4.9287Y-3.95
X5.4106Y-3.696
X5.4106Y-3.7747
X5.4106Y-3.8535
X5.4894Y-3.696
X5.4894Y-3.7747
X5.4894Y-3.8535
T2
X4.9Y-3.3
X4.9Y-4.5
X5.2Y-3.3
X5.3Y-4.5
X5.4996Y-4.5
X5.5Y-2.8
X5.5Y-2.9
X5.5Y-3.0
X5.5Y-3.1
X5.5Y-3.2
X5.5Y-3.3
X5.5996Y-4.5
X5.6996Y-4.5
X5.7996Y-4.5
X5.8996Y-4.5
X5.9996Y-4.5
X6.0996Y-4.5
X6.1996Y-4.5
X6.2996Y-4.5
X6.651Y-4.5268
X6.751Y-4.5268
X6.851Y-4.5268
X6.9Y-3.3
X6.951Y-4.5268
X7.051Y-4.5268
X7.151Y-4.5268
X7.2Y-3.3
T3
X4.9Y-3.6
X4.9Y-4.2
X5.0Y-3.6
X5.0Y-3.7
X5.0Y-4.2
X5.1Y-3.6
X5.1Y-4.2
X5.148Y-4.0799
X5.2Y-3.6
X5.2Y-4.2
X5.248Y-4.0799
X5.3Y-3.6
X5.3Y-4.2
X5.348Y-4.0799
X5.4Y-3.6
X5.4Y-4.2
X5.448Y-4.0799
X5.5Y-3.6
X5.5Y-4.2
X5.548Y-4.0799
X5.6Y-3.6
X5.6Y-4.2
X5.7Y-3.6
X5.7Y-4.2
X5.8Y-3.6
X5.8Y-4.2
X5.9Y-3.6
X5.9Y-4.2
X6.0Y-3.6
X6.0Y-4.2
X6.1Y-3.6
X6.1Y-4.2
X6.2Y-3.6
X6.2Y-4.2
X6.3Y-3.6
X6.3Y-4.2
X6.4Y-3.6
X6.4Y-4.2
X6.5Y-3.6
X6.5Y-4.2
X6.6Y-3.6
X6.6Y-4.2
X6.7Y-3.6
X6.7Y-3.7
X6.7Y-3.8
X6.7Y-3.9
X6.7Y-4.0
X6.7Y-4.1
X6.7Y-4.2
X6.8Y-3.6
X6.8Y-4.2
X6.9Y-3.6
X6.9Y-4.2
X7.0Y-3.6
X7.0Y-4.2
X7.1Y-3.6
X7.1Y-4.2
X7.2Y-3.6
X7.2Y-4.2
T0
M30
